G04*
G04 #@! TF.GenerationSoftware,Altium Limited,Altium Designer,23.1.1 (15)*
G04*
G04 Layer_Physical_Order=2*
G04 Layer_Color=16711680*
%FSLAX44Y44*%
%MOMM*%
G71*
G04*
G04 #@! TF.SameCoordinates,AA1C95EE-6770-4743-BBAD-D3AA2F0EE2A5*
G04*
G04*
G04 #@! TF.FilePolarity,Positive*
G04*
G01*
G75*
%ADD11C,0.2540*%
%ADD38C,1.7780*%
%ADD53C,0.7620*%
%ADD54C,1.6500*%
%ADD55R,1.6500X1.6500*%
%ADD56C,3.5000*%
%ADD57R,1.7780X1.7780*%
%ADD58C,1.9500*%
%ADD59C,1.6050*%
%ADD60C,1.5748*%
%ADD61C,2.5400*%
%ADD62C,1.4980*%
%ADD63R,1.4980X1.4980*%
%ADD64C,1.5300*%
%ADD65R,1.5080X1.5080*%
%ADD66C,1.5080*%
%ADD67R,1.6050X1.6050*%
%ADD68C,1.6510*%
%ADD69R,1.6510X1.6510*%
%ADD70C,2.0000*%
%ADD71C,1.6764*%
%ADD72R,1.6050X1.6050*%
%ADD73C,2.5000*%
%ADD74C,1.2700*%
D11*
X207010Y405130D02*
X232410D01*
X1644920Y780780D02*
Y806180D01*
X1452880Y694690D02*
X1685290D01*
X1767840Y777240D01*
X1802130D01*
X547370Y669290D02*
X628650D01*
X915670Y1028700D02*
X951230D01*
X889000Y1055370D02*
X915670Y1028700D01*
X1207770Y1046480D02*
Y1070610D01*
X1189990Y1028700D02*
X1207770Y1046480D01*
X976630Y1028700D02*
X1189990D01*
X1661160Y1047750D02*
Y1301750D01*
X1681640Y1027270D02*
X1757840D01*
X1661160Y1047750D02*
X1681640Y1027270D01*
X1651000Y1311910D02*
X1661160Y1301750D01*
X1512570Y1311910D02*
X1651000D01*
X1696880Y1128870D02*
X1757840D01*
X1682750Y1143000D02*
Y1319530D01*
Y1143000D02*
X1696880Y1128870D01*
X1664970Y1337310D02*
X1682750Y1319530D01*
X1512570Y1337310D02*
X1664970D01*
X1731010Y1230470D02*
X1757840D01*
X1710690Y1250790D02*
X1731010Y1230470D01*
X1710690Y1250790D02*
Y1348740D01*
X1696720Y1362710D02*
X1710690Y1348740D01*
X1512570Y1362710D02*
X1696720D01*
X1729740Y1344930D02*
Y1374140D01*
X1741330Y1333340D02*
X1757840D01*
X1729740Y1344930D02*
X1741330Y1333340D01*
X1715770Y1388110D02*
X1729740Y1374140D01*
X1512570Y1388110D02*
X1715770D01*
X1705450Y1739740D02*
X1757840D01*
X1696720Y1502410D02*
Y1731010D01*
X1705450Y1739740D01*
X1710690Y1621790D02*
X1727040Y1638140D01*
X1710690Y1477010D02*
Y1621790D01*
X1697990Y1464310D02*
X1710690Y1477010D01*
X1684020Y1489710D02*
X1696720Y1502410D01*
X1512570Y1489710D02*
X1684020D01*
X1727040Y1638140D02*
X1757840D01*
X1512570Y1464310D02*
X1697990D01*
X1729740Y1456690D02*
Y1526540D01*
X1739740Y1536540D02*
X1757840D01*
X1729740Y1526540D02*
X1739740Y1536540D01*
X1711960Y1438910D02*
X1729740Y1456690D01*
X1512570Y1438910D02*
X1711960D01*
X497840Y619760D02*
X547370Y669290D01*
X889270Y597170D02*
X914670D01*
X804860Y401320D02*
X828040D01*
X770890Y175260D02*
X796290D01*
X652780Y576580D02*
X678180D01*
X1644920Y806180D02*
X1666780Y828040D01*
X1802130D01*
X1736410Y1413510D02*
X1757840Y1434940D01*
X1512570Y1413510D02*
X1736410D01*
D38*
X694690Y855980D02*
D03*
D53*
X1080770Y1480850D02*
Y1563370D01*
X1158240Y1640840D01*
Y1663700D01*
X1209040Y1624330D02*
Y1663700D01*
X1156970Y1572260D02*
X1209040Y1624330D01*
X1156970Y1480850D02*
Y1572260D01*
X716280Y1146810D02*
X1108710D01*
X1122680Y1160780D01*
Y1336040D01*
X628650Y671830D02*
Y855980D01*
Y671830D02*
X1135380D01*
X547370D02*
X628650D01*
X497840Y619760D02*
Y622300D01*
X1141730Y678180D02*
Y695960D01*
X1135380Y671830D02*
X1141730Y678180D01*
X497840Y622300D02*
X547370Y671830D01*
X1301750Y648970D02*
X1781810D01*
X844550D02*
X1301750D01*
X1300480Y650240D02*
X1301750Y648970D01*
X1452880Y847090D02*
Y872490D01*
Y821690D02*
Y847090D01*
Y796290D02*
Y821690D01*
Y770890D02*
Y796290D01*
Y745490D02*
Y770890D01*
Y720090D02*
Y745490D01*
Y694690D02*
Y720090D01*
X1802130Y669290D02*
Y751840D01*
X1781810Y648970D02*
X1802130Y669290D01*
X1141730Y848360D02*
Y873760D01*
Y822960D02*
Y848360D01*
Y797560D02*
Y822960D01*
Y772160D02*
Y797560D01*
Y746760D02*
Y772160D01*
Y721360D02*
Y746760D01*
Y695960D02*
Y721360D01*
X1300480Y848360D02*
Y873760D01*
Y822960D02*
Y848360D01*
Y797560D02*
Y822960D01*
Y772160D02*
Y797560D01*
Y746760D02*
Y772160D01*
Y721360D02*
Y746760D01*
Y695960D02*
Y721360D01*
Y650240D02*
Y695960D01*
X828040Y401320D02*
Y632460D01*
Y104140D02*
Y401320D01*
Y632460D02*
X844550Y648970D01*
X920750Y715010D02*
Y960120D01*
X811530Y87630D02*
X828040Y104140D01*
X204470Y87630D02*
X811530D01*
X195580Y96520D02*
X204470Y87630D01*
X195580Y96520D02*
Y122530D01*
X113030Y906780D02*
Y1018540D01*
X163830Y855980D02*
X628650D01*
X113030Y906780D02*
X163830Y855980D01*
X138430Y984250D02*
X162560Y960120D01*
X716280Y1146810D02*
Y1375410D01*
X736560Y1395690D01*
X1258570Y1432560D02*
Y1480850D01*
X1229360Y1403350D02*
X1258570Y1432560D01*
X1189990Y1403350D02*
X1229360D01*
X1122680Y1336040D02*
X1189990Y1403350D01*
X130810Y1146810D02*
X716280D01*
X736560Y1395690D02*
X769310D01*
X113030Y1129030D02*
X130810Y1146810D01*
X113030Y1087120D02*
Y1129030D01*
X829310Y1375690D02*
Y1457960D01*
X803910Y1483360D02*
X829310Y1457960D01*
X803910Y1483360D02*
Y1662430D01*
X854710Y1552290D02*
X889310Y1517690D01*
X854710Y1552290D02*
Y1662430D01*
X497840Y383540D02*
Y619760D01*
X920750Y960120D02*
X1437640D01*
X162560D02*
X920750D01*
X1452880Y872490D02*
Y944880D01*
X1437640Y960120D02*
X1452880Y944880D01*
X138430Y984250D02*
Y1018540D01*
X660400Y1724660D02*
X792480D01*
X854710Y1662430D01*
D54*
X1209040Y1663700D02*
D03*
X854710Y1662430D02*
D03*
D55*
X1158240Y1663700D02*
D03*
X803910Y1662430D02*
D03*
D56*
X53340Y53340D02*
D03*
X1951990Y60960D02*
D03*
X1954530Y1870710D02*
D03*
X59690D02*
D03*
D57*
X628650Y855980D02*
D03*
D58*
X889310Y1517690D02*
D03*
X769310D02*
D03*
Y1395690D02*
D03*
X889310D02*
D03*
X829310Y1375690D02*
D03*
D59*
X207010Y405130D02*
D03*
X232410D02*
D03*
X652780Y576580D02*
D03*
X678180D02*
D03*
X770890Y175260D02*
D03*
X796290D02*
D03*
X951230Y1028700D02*
D03*
X976630D02*
D03*
X914670Y597170D02*
D03*
X889270D02*
D03*
X1644920Y806180D02*
D03*
Y780780D02*
D03*
X1802130Y828040D02*
D03*
Y802640D02*
D03*
Y777240D02*
D03*
X548640Y383540D02*
D03*
X523240D02*
D03*
X497840D02*
D03*
D60*
X1300480Y695960D02*
D03*
Y772160D02*
D03*
Y797560D02*
D03*
Y822960D02*
D03*
Y848360D02*
D03*
Y873760D02*
D03*
Y746760D02*
D03*
Y721360D02*
D03*
X1141730Y695960D02*
D03*
Y772160D02*
D03*
Y797560D02*
D03*
Y822960D02*
D03*
Y848360D02*
D03*
Y873760D02*
D03*
Y746760D02*
D03*
Y721360D02*
D03*
X1452880Y694690D02*
D03*
Y770890D02*
D03*
Y796290D02*
D03*
Y821690D02*
D03*
Y847090D02*
D03*
Y872490D02*
D03*
Y745490D02*
D03*
Y720090D02*
D03*
X426720Y1520190D02*
D03*
X350520D02*
D03*
X325120D02*
D03*
X299720D02*
D03*
X274320D02*
D03*
X248920D02*
D03*
X375920D02*
D03*
X401320D02*
D03*
X1512570Y1311910D02*
D03*
Y1388110D02*
D03*
Y1413510D02*
D03*
Y1438910D02*
D03*
Y1464310D02*
D03*
Y1489710D02*
D03*
Y1362710D02*
D03*
Y1337310D02*
D03*
D61*
X895350Y816610D02*
D03*
X869950Y715010D02*
D03*
X920750D02*
D03*
D62*
X1822840Y1581540D02*
D03*
Y1536540D02*
D03*
X1757840D02*
D03*
X1822840Y1479940D02*
D03*
Y1434940D02*
D03*
X1757840D02*
D03*
X1822840Y1378340D02*
D03*
Y1333340D02*
D03*
X1757840D02*
D03*
X1822840Y1173870D02*
D03*
Y1128870D02*
D03*
X1757840D02*
D03*
X1822840Y1072270D02*
D03*
Y1027270D02*
D03*
X1757840D02*
D03*
X1822840Y1683140D02*
D03*
Y1638140D02*
D03*
X1757840D02*
D03*
X1822840Y1784740D02*
D03*
Y1739740D02*
D03*
X1757840D02*
D03*
X1822840Y1275470D02*
D03*
Y1230470D02*
D03*
X1757840D02*
D03*
D63*
Y1581540D02*
D03*
Y1479940D02*
D03*
Y1378340D02*
D03*
Y1173870D02*
D03*
Y1072270D02*
D03*
Y1683140D02*
D03*
Y1784740D02*
D03*
Y1275470D02*
D03*
D64*
X468630Y699770D02*
D03*
X443230D02*
D03*
X417830D02*
D03*
X392430D02*
D03*
X367030D02*
D03*
X341630D02*
D03*
X316230D02*
D03*
X290830D02*
D03*
X265430D02*
D03*
X240030D02*
D03*
X214630D02*
D03*
X189230D02*
D03*
X163830D02*
D03*
X138430D02*
D03*
X113030D02*
D03*
Y768350D02*
D03*
X138430D02*
D03*
X163830D02*
D03*
X189230D02*
D03*
X214630D02*
D03*
X240030D02*
D03*
X265430D02*
D03*
X290830D02*
D03*
X316230D02*
D03*
X341630D02*
D03*
X367030D02*
D03*
X392430D02*
D03*
X417830D02*
D03*
X443230D02*
D03*
X468630D02*
D03*
Y1018540D02*
D03*
X443230D02*
D03*
X417830D02*
D03*
X392430D02*
D03*
X367030D02*
D03*
X341630D02*
D03*
X316230D02*
D03*
X290830D02*
D03*
X265430D02*
D03*
X240030D02*
D03*
X214630D02*
D03*
X189230D02*
D03*
X163830D02*
D03*
X138430D02*
D03*
X113030D02*
D03*
Y1087120D02*
D03*
X138430D02*
D03*
X163830D02*
D03*
X189230D02*
D03*
X214630D02*
D03*
X240030D02*
D03*
X265430D02*
D03*
X290830D02*
D03*
X316230D02*
D03*
X341630D02*
D03*
X367030D02*
D03*
X392430D02*
D03*
X417830D02*
D03*
X443230D02*
D03*
X468630D02*
D03*
D65*
X1080770Y1480850D02*
D03*
D66*
X1156970D02*
D03*
X1258570D02*
D03*
X1283970D02*
D03*
D67*
X1802130Y751840D02*
D03*
D68*
X271780Y122530D02*
D03*
X246380D02*
D03*
X220980D02*
D03*
D69*
X195580D02*
D03*
D70*
X660400Y1577340D02*
D03*
Y1724660D02*
D03*
D71*
X764860Y401320D02*
D03*
X804860D02*
D03*
D72*
X472440Y383540D02*
D03*
D73*
X53340Y53340D02*
D03*
X1951990Y60960D02*
D03*
X1954530Y1870710D02*
D03*
X59690D02*
D03*
D74*
X889000Y1055370D02*
D03*
X1207770Y1070610D02*
D03*
M02*
