G04*
G04 #@! TF.GenerationSoftware,Altium Limited,Altium Designer,23.1.1 (15)*
G04*
G04 Layer_Color=65535*
%FSLAX44Y44*%
%MOMM*%
G71*
G04*
G04 #@! TF.SameCoordinates,AA1C95EE-6770-4743-BBAD-D3AA2F0EE2A5*
G04*
G04*
G04 #@! TF.FilePolarity,Positive*
G04*
G01*
G75*
%ADD10C,0.2000*%
%ADD11C,0.2540*%
%ADD12C,0.0000*%
%ADD13C,0.1270*%
%ADD14C,0.2032*%
%ADD15C,0.3048*%
%ADD16C,0.5080*%
D10*
X115150Y1350010D02*
G03*
X115150Y1350010I-1000J0D01*
G01*
X1233230Y1244600D02*
G03*
X1233230Y1244600I-1000J0D01*
G01*
X1179230Y1195070D02*
G03*
X1179230Y1195070I-1000J0D01*
G01*
X788070Y1200150D02*
G03*
X788070Y1200150I-1000J0D01*
G01*
X840800Y1247140D02*
G03*
X840800Y1247140I-1000J0D01*
G01*
X1746890Y1581540D02*
G03*
X1746890Y1581540I-1000J0D01*
G01*
Y1479940D02*
G03*
X1746890Y1479940I-1000J0D01*
G01*
Y1378340D02*
G03*
X1746890Y1378340I-1000J0D01*
G01*
Y1173870D02*
G03*
X1746890Y1173870I-1000J0D01*
G01*
Y1072270D02*
G03*
X1746890Y1072270I-1000J0D01*
G01*
X1053830Y1479550D02*
G03*
X1053830Y1479550I-1000J0D01*
G01*
X1803630Y730340D02*
G03*
X1803630Y730340I-1000J0D01*
G01*
X450580Y1626680D02*
G03*
X450580Y1626680I-1000J0D01*
G01*
X183880D02*
G03*
X183880Y1626680I-1000J0D01*
G01*
X228330D02*
G03*
X228330Y1626680I-1000J0D01*
G01*
X272780D02*
G03*
X272780Y1626680I-1000J0D01*
G01*
X317230D02*
G03*
X317230Y1626680I-1000J0D01*
G01*
X361680D02*
G03*
X361680Y1626680I-1000J0D01*
G01*
X406130D02*
G03*
X406130Y1626680I-1000J0D01*
G01*
X495030D02*
G03*
X495030Y1626680I-1000J0D01*
G01*
X1746890Y1683140D02*
G03*
X1746890Y1683140I-1000J0D01*
G01*
Y1784740D02*
G03*
X1746890Y1784740I-1000J0D01*
G01*
Y1275470D02*
G03*
X1746890Y1275470I-1000J0D01*
G01*
X451940Y383040D02*
G03*
X451940Y383040I-1000J0D01*
G01*
D11*
X184170Y1253030D02*
G03*
X190170Y1247030I6000J0D01*
G01*
X221170D02*
G03*
X227170Y1253030I0J6000D01*
G01*
X190170Y1265030D02*
G03*
X184170Y1259030I0J-6000D01*
G01*
X227170D02*
G03*
X221170Y1265030I-6000J0D01*
G01*
X72340Y53340D02*
G03*
X72340Y53340I-19000J0D01*
G01*
X1970990Y60960D02*
G03*
X1970990Y60960I-19000J0D01*
G01*
X1973530Y1870710D02*
G03*
X1973530Y1870710I-19000J0D01*
G01*
X78690D02*
G03*
X78690Y1870710I-19000J0D01*
G01*
X725170Y855980D02*
G03*
X725170Y855980I-63500J0D01*
G01*
X1183660Y1295780D02*
G03*
X1189660Y1289780I6000J0D01*
G01*
X1220660D02*
G03*
X1226660Y1295780I0J6000D01*
G01*
X1189660Y1307780D02*
G03*
X1183660Y1301780I0J-6000D01*
G01*
X1226660D02*
G03*
X1220660Y1307780I-6000J0D01*
G01*
X789960Y1300020D02*
G03*
X795960Y1294020I6000J0D01*
G01*
X826960D02*
G03*
X832960Y1300020I0J6000D01*
G01*
X795960Y1312020D02*
G03*
X789960Y1306020I0J-6000D01*
G01*
X832960D02*
G03*
X826960Y1312020I-6000J0D01*
G01*
X146030Y146510D02*
G03*
X140030Y152510I-6000J0D01*
G01*
X109030D02*
G03*
X103030Y146510I0J-6000D01*
G01*
X140030Y134510D02*
G03*
X146030Y140510I0J6000D01*
G01*
X103030D02*
G03*
X109030Y134510I6000J0D01*
G01*
X843950Y712710D02*
G03*
X856650Y700010I12700J0D01*
G01*
X933250D02*
G03*
X945950Y712710I0J12700D01*
G01*
Y819310D02*
G03*
X933250Y832010I-12700J0D01*
G01*
X856650D02*
G03*
X843950Y819310I0J-12700D01*
G01*
X919572Y770562D02*
G03*
X919572Y770562I-25000J0D01*
G01*
X98298Y754634D02*
Y1032510D01*
X472440Y955040D02*
Y979170D01*
X441960Y812800D02*
X472440D01*
Y842010D01*
X441960D02*
X472440D01*
Y873760D01*
X441960D02*
X472440D01*
X441960D02*
Y904240D01*
X472440D01*
Y929640D01*
X441960D02*
X472440D01*
X441960D02*
Y953770D01*
X471170D01*
X440690Y979170D02*
X472440D01*
X191526Y1247030D02*
X220170D01*
X189170D02*
X191526D01*
Y1265030D02*
X220170D01*
X189170D02*
X191526D01*
X184170Y1253030D02*
Y1259030D01*
X227170Y1253030D02*
Y1259030D01*
X72340Y53340D02*
X79840D01*
X26840D02*
X34340D01*
X53340Y26840D02*
Y34340D01*
Y72340D02*
Y79840D01*
X1970990Y60960D02*
X1978490D01*
X1925490D02*
X1932990D01*
X1951990Y34460D02*
Y41960D01*
Y79960D02*
Y87460D01*
X1973530Y1870710D02*
X1981030D01*
X1928030D02*
X1935530D01*
X1954530Y1844210D02*
Y1851710D01*
Y1889710D02*
Y1897210D01*
X78690Y1870710D02*
X86190D01*
X33190D02*
X40690D01*
X59690Y1844210D02*
Y1851710D01*
Y1889710D02*
Y1897210D01*
X618490Y886460D02*
X638810D01*
X628650Y876300D02*
Y896620D01*
X1191016Y1289780D02*
X1219660D01*
X1188660D02*
X1191016D01*
Y1307780D02*
X1219660D01*
X1188660D02*
X1191016D01*
X1183660Y1295780D02*
Y1301781D01*
X1226660Y1295780D02*
Y1301781D01*
X797316Y1294020D02*
X825960D01*
X794960D02*
X797316D01*
Y1312020D02*
X825960D01*
X794960D02*
X797316D01*
X789960Y1300020D02*
Y1306020D01*
X832960Y1300020D02*
Y1306020D01*
X110030Y152510D02*
X138674D01*
X141030D01*
X110030Y134510D02*
X138674D01*
X141030D01*
X146030Y140510D02*
Y146510D01*
X103030Y140510D02*
Y146510D01*
X247010Y380130D02*
Y382130D01*
Y380130D02*
X256010D01*
X247010Y382130D02*
X257010D01*
X183010Y380130D02*
X257010D01*
X184010Y384130D02*
X192010D01*
X184010Y382130D02*
X192010D01*
Y380130D02*
Y384130D01*
X183010Y380130D02*
Y437130D01*
X257010D01*
Y380130D02*
Y437130D01*
X1280160Y680720D02*
Y889000D01*
X1275080Y680720D02*
X1330960D01*
X1275080Y889000D02*
X1330960D01*
Y680720D02*
Y889000D01*
X1275080Y680720D02*
Y889000D01*
X1280160Y861060D02*
X1330960D01*
X1121410Y680720D02*
Y889000D01*
X1116330Y680720D02*
X1172210D01*
X1116330Y889000D02*
X1172210D01*
Y680720D02*
Y889000D01*
X1116330Y680720D02*
Y889000D01*
X1121410Y861060D02*
X1172210D01*
X692780Y551580D02*
Y553580D01*
Y551580D02*
X701780D01*
X692780Y553580D02*
X702780D01*
X628780Y551580D02*
X702780D01*
X629780Y555580D02*
X637780D01*
X629780Y553580D02*
X637780D01*
Y551580D02*
Y555580D01*
X628780Y551580D02*
Y608580D01*
X702780D01*
Y551580D02*
Y608580D01*
X843950Y724010D02*
Y819310D01*
Y712710D02*
Y724010D01*
X856650Y700010D02*
X933250D01*
X945950Y712710D02*
Y819310D01*
X856650Y832010D02*
X933250D01*
X871950Y770010D02*
X884950Y779010D01*
Y773010D02*
Y779010D01*
Y773010D02*
X915950D01*
Y767010D02*
Y773010D01*
X884950Y767010D02*
X915950D01*
X884950Y761010D02*
Y767010D01*
X871950Y770010D02*
X884950Y761010D01*
X1432560Y679450D02*
Y887730D01*
X1427480Y679450D02*
X1483360D01*
X1427480Y887730D02*
X1483360D01*
Y679450D02*
Y887730D01*
X1427480Y679450D02*
Y887730D01*
X1432560Y859790D02*
X1483360D01*
X810890Y150260D02*
Y152260D01*
Y150260D02*
X819890D01*
X810890Y152260D02*
X820890D01*
X746890Y150260D02*
X820890D01*
X747890Y154260D02*
X755890D01*
X747890Y152260D02*
X755890D01*
Y150260D02*
Y154260D01*
X746890Y150260D02*
Y207260D01*
X820890D01*
Y150260D02*
Y207260D01*
X233680Y1499870D02*
X441960D01*
Y1494790D02*
Y1550670D01*
X233680Y1494790D02*
Y1550670D01*
X441960D01*
X233680Y1494790D02*
X441960D01*
X261620Y1499870D02*
Y1550670D01*
X1492250Y1296670D02*
Y1504950D01*
X1487170Y1296670D02*
X1543050D01*
X1487170Y1504950D02*
X1543050D01*
Y1296670D02*
Y1504950D01*
X1487170Y1296670D02*
Y1504950D01*
X1492250Y1477010D02*
X1543050D01*
X991230Y1003700D02*
Y1005700D01*
Y1003700D02*
X1000230D01*
X991230Y1005700D02*
X1001230D01*
X927230Y1003700D02*
X1001230D01*
X928230Y1007700D02*
X936230D01*
X928230Y1005700D02*
X936230D01*
Y1003700D02*
Y1007700D01*
X927230Y1003700D02*
Y1060700D01*
X1001230D01*
Y1003700D02*
Y1060700D01*
X939270Y572170D02*
Y629170D01*
X865270D02*
X939270D01*
X865270Y572170D02*
Y629170D01*
X874270Y572170D02*
Y576170D01*
X866270Y574170D02*
X874270D01*
X866270Y576170D02*
X874270D01*
X865270Y572170D02*
X939270D01*
X929270Y574170D02*
X939270D01*
X929270Y572170D02*
X938270D01*
X929270D02*
Y574170D01*
X1619920Y766180D02*
X1621920D01*
X1619920Y757180D02*
Y766180D01*
X1621920Y756180D02*
Y766180D01*
X1619920Y756180D02*
Y830180D01*
X1623920Y821180D02*
Y829180D01*
X1621920Y821180D02*
Y829180D01*
X1619920Y821180D02*
X1623920D01*
X1619920Y830180D02*
X1676920D01*
Y756180D02*
Y830180D01*
X1619920Y756180D02*
X1676920D01*
X640670Y1500240D02*
X682670D01*
Y1390240D02*
Y1500240D01*
X640670Y1390240D02*
Y1500240D01*
Y1390240D02*
X682670D01*
X629920Y1557020D02*
Y1744980D01*
X690880D01*
Y1557020D02*
Y1744980D01*
X629920Y1557020D02*
X690880D01*
X483630Y754394D02*
Y1032270D01*
X644398Y130302D02*
Y400050D01*
X374650Y130302D02*
Y400050D01*
Y130302D02*
X644398D01*
X374650Y400050D02*
X644398D01*
X1032002Y104902D02*
Y635000D01*
X1882140D01*
Y104902D02*
Y635000D01*
X1032002Y104902D02*
X1882140D01*
X538480Y1445260D02*
Y1823720D01*
X140970Y1445260D02*
X538480D01*
X140970D02*
Y1823720D01*
X538480D01*
X1433830Y990600D02*
Y1819910D01*
X1507490Y932180D02*
X1508760Y930910D01*
X1096010Y932180D02*
X1507490D01*
X1508760Y668238D02*
Y930910D01*
X1096010Y668238D02*
Y932180D01*
Y668238D02*
X1097498Y666750D01*
X1507272D01*
X1508760Y668238D01*
X594843Y1099820D02*
Y1797337D01*
Y1099820D02*
X939800D01*
X594843Y1797337D02*
X939800D01*
X1433830Y990600D02*
X1884680D01*
X1433830Y1819910D02*
X1884680D01*
Y990600D02*
Y1819910D01*
X939800Y1099820D02*
Y1797337D01*
X1380490Y1099820D02*
Y1798320D01*
X977829D02*
X1380490D01*
X977829Y1099820D02*
X1380490D01*
X977829D02*
Y1798320D01*
X1402080Y977900D02*
Y1822737D01*
X569443D02*
X1402080D01*
X569443Y977900D02*
X1402080D01*
X569443D02*
Y1822737D01*
X77470Y480060D02*
X316230D01*
X77470Y82550D02*
Y480060D01*
Y82550D02*
X316230D01*
Y480060D01*
X347980Y481330D02*
X675640D01*
X347980Y102870D02*
Y481330D01*
Y102870D02*
X675640D01*
Y481330D01*
X565150Y937260D02*
X760730D01*
X565150Y527050D02*
Y937260D01*
Y527050D02*
X760730D01*
Y937260D01*
X711200Y473710D02*
X848360D01*
X711200Y114300D02*
Y473710D01*
Y114300D02*
X848360D01*
Y473710D01*
X805180Y546100D02*
Y858520D01*
X1579880Y909320D02*
X1879600D01*
X1579880Y707390D02*
Y909320D01*
Y707390D02*
X1879600D01*
Y909320D01*
X537210Y521970D02*
Y1211580D01*
X72390Y521970D02*
X537210D01*
X72390D02*
Y1211580D01*
X537210D01*
X805180Y858520D02*
X976630D01*
Y546100D02*
Y858520D01*
X805180Y546100D02*
X976630D01*
X509265Y915673D02*
Y925830D01*
X494030D01*
Y915673D01*
X501647Y925830D02*
Y920752D01*
X506726Y900438D02*
X509265Y902977D01*
Y908056D01*
X506726Y910595D01*
X504187D01*
X501647Y908056D01*
Y902977D01*
X499108Y900438D01*
X496569D01*
X494030Y902977D01*
Y908056D01*
X496569Y910595D01*
X494030Y895360D02*
X509265D01*
Y887742D01*
X506726Y885203D01*
X501647D01*
X499108Y887742D01*
Y895360D01*
X506726Y880125D02*
X509265Y877586D01*
Y872507D01*
X506726Y869968D01*
X504187D01*
X501647Y872507D01*
Y875046D01*
Y872507D01*
X499108Y869968D01*
X496569D01*
X494030Y872507D01*
Y877586D01*
X496569Y880125D01*
X494030Y854733D02*
Y864890D01*
X504187Y854733D01*
X506726D01*
X509265Y857272D01*
Y862350D01*
X506726Y864890D01*
X1405890Y356870D02*
Y372105D01*
X1413508D01*
X1416047Y369566D01*
Y364487D01*
X1413508Y361948D01*
X1405890D01*
X1421125Y372105D02*
Y361948D01*
Y367027D01*
X1423664Y369566D01*
X1426203Y372105D01*
X1428743D01*
X1438899Y361948D02*
X1443978D01*
X1446517Y364487D01*
Y369566D01*
X1443978Y372105D01*
X1438899D01*
X1436360Y369566D01*
Y364487D01*
X1438899Y361948D01*
X1454134Y374644D02*
Y372105D01*
X1451595D01*
X1456674D01*
X1454134D01*
Y364487D01*
X1456674Y361948D01*
X1466830D02*
X1471909D01*
X1474448Y364487D01*
Y369566D01*
X1471909Y372105D01*
X1466830D01*
X1464291Y369566D01*
Y364487D01*
X1466830Y361948D01*
X1479526Y377183D02*
Y361948D01*
X1487144D01*
X1489683Y364487D01*
Y367027D01*
Y369566D01*
X1487144Y372105D01*
X1479526D01*
X1497300Y361948D02*
X1502379D01*
X1504918Y364487D01*
Y369566D01*
X1502379Y372105D01*
X1497300D01*
X1494761Y369566D01*
Y364487D01*
X1497300Y361948D01*
X1512536Y372105D02*
X1517614D01*
X1520153Y369566D01*
Y361948D01*
X1512536D01*
X1509996Y364487D01*
X1512536Y367027D01*
X1520153D01*
X1525231Y372105D02*
Y361948D01*
Y367027D01*
X1527771Y369566D01*
X1530310Y372105D01*
X1532849D01*
X1550623Y377183D02*
Y361948D01*
X1543006D01*
X1540466Y364487D01*
Y369566D01*
X1543006Y372105D01*
X1550623D01*
X1915155Y490220D02*
Y485142D01*
Y487681D01*
X1899920D01*
Y490220D01*
Y485142D01*
X1915155Y469907D02*
Y474985D01*
X1912616Y477524D01*
X1902459D01*
X1899920Y474985D01*
Y469907D01*
X1902459Y467367D01*
X1912616D01*
X1915155Y469907D01*
Y462289D02*
Y452132D01*
Y457211D01*
X1899920D01*
X1897381Y447054D02*
Y436897D01*
X1899920Y431819D02*
X1915155D01*
Y424201D01*
X1912616Y421662D01*
X1907538D01*
X1904998Y424201D01*
Y431819D01*
X1912616Y406427D02*
X1915155Y408966D01*
Y414045D01*
X1912616Y416584D01*
X1902459D01*
X1899920Y414045D01*
Y408966D01*
X1902459Y406427D01*
X1915155Y401349D02*
X1899920D01*
Y393731D01*
X1902459Y391192D01*
X1904998D01*
X1907538Y393731D01*
Y401349D01*
Y393731D01*
X1910077Y391192D01*
X1912616D01*
X1915155Y393731D01*
Y401349D01*
X1897381Y386114D02*
Y375957D01*
X1915155Y370879D02*
X1904998D01*
X1899920Y365800D01*
X1904998Y360722D01*
X1915155D01*
Y345487D02*
Y355644D01*
X1899920D01*
Y345487D01*
X1907538Y355644D02*
Y350565D01*
X1899920Y340409D02*
X1915155D01*
Y332791D01*
X1912616Y330252D01*
X1907538D01*
X1904998Y332791D01*
Y340409D01*
Y335330D02*
X1899920Y330252D01*
Y325173D02*
X1902459D01*
Y322634D01*
X1899920D01*
Y325173D01*
Y312477D02*
Y307399D01*
Y309938D01*
X1915155D01*
X1912616Y312477D01*
X1899920Y299782D02*
X1902459D01*
Y297242D01*
X1899920D01*
Y299782D01*
Y276929D02*
Y287086D01*
X1910077Y276929D01*
X1912616D01*
X1915155Y279468D01*
Y284547D01*
X1912616Y287086D01*
X1899920Y271851D02*
X1902459D01*
Y269312D01*
X1899920D01*
Y271851D01*
Y259155D02*
Y254076D01*
Y256616D01*
X1915155D01*
X1912616Y259155D01*
X1911350Y1605281D02*
X1926585D01*
Y1600202D02*
X1911350D01*
X1921507Y1607820D02*
Y1600202D01*
Y1597663D01*
X1916428Y1607820D02*
Y1597663D01*
X1911350Y1590046D02*
X1926585D01*
Y1584967D02*
X1911350D01*
X1921507Y1592585D02*
Y1584967D01*
Y1582428D01*
X1916428Y1592585D02*
Y1582428D01*
X1911350Y1562115D02*
X1926585D01*
X1911350Y1551958D01*
X1926585D01*
Y1536723D02*
Y1546880D01*
X1918967D01*
Y1541801D01*
Y1546880D01*
X1911350D01*
X1924046Y1521488D02*
X1926585Y1524027D01*
Y1529106D01*
X1924046Y1531645D01*
X1921507D01*
X1918967Y1529106D01*
Y1524027D01*
X1916428Y1521488D01*
X1913889D01*
X1911350Y1524027D01*
Y1529106D01*
X1913889Y1531645D01*
X1924046Y1491018D02*
X1926585Y1493557D01*
Y1498635D01*
X1924046Y1501174D01*
X1913889D01*
X1911350Y1498635D01*
Y1493557D01*
X1913889Y1491018D01*
X1918967D01*
Y1496096D01*
X1911350Y1485939D02*
X1926585D01*
Y1478322D01*
X1924046Y1475783D01*
X1918967D01*
X1916428Y1478322D01*
Y1485939D01*
Y1480861D02*
X1911350Y1475783D01*
X1926585Y1463087D02*
Y1468165D01*
X1924046Y1470704D01*
X1913889D01*
X1911350Y1468165D01*
Y1463087D01*
X1913889Y1460548D01*
X1924046D01*
X1926585Y1463087D01*
Y1455469D02*
X1913889D01*
X1911350Y1452930D01*
Y1447852D01*
X1913889Y1445313D01*
X1926585D01*
X1911350Y1440234D02*
X1926585D01*
Y1432617D01*
X1924046Y1430078D01*
X1918967D01*
X1916428Y1432617D01*
Y1440234D01*
X1926585Y1409764D02*
Y1404686D01*
Y1407225D01*
X1911350D01*
Y1409764D01*
Y1404686D01*
X1926585Y1389451D02*
Y1394529D01*
X1924046Y1397068D01*
X1913889D01*
X1911350Y1394529D01*
Y1389451D01*
X1913889Y1386911D01*
X1924046D01*
X1926585Y1389451D01*
Y1381833D02*
Y1371676D01*
Y1376755D01*
X1911350D01*
X1926585Y1351363D02*
X1911350D01*
Y1343745D01*
X1913889Y1341206D01*
X1916428D01*
X1918967Y1343745D01*
Y1351363D01*
Y1343745D01*
X1921507Y1341206D01*
X1924046D01*
X1926585Y1343745D01*
Y1351363D01*
Y1328510D02*
Y1333589D01*
X1924046Y1336128D01*
X1913889D01*
X1911350Y1333589D01*
Y1328510D01*
X1913889Y1325971D01*
X1924046D01*
X1926585Y1328510D01*
X1911350Y1320893D02*
X1921507D01*
X1926585Y1315815D01*
X1921507Y1310736D01*
X1911350D01*
X1918967D01*
Y1320893D01*
X1911350Y1305658D02*
X1926585D01*
Y1298040D01*
X1924046Y1295501D01*
X1918967D01*
X1916428Y1298040D01*
Y1305658D01*
Y1300579D02*
X1911350Y1295501D01*
X1926585Y1290423D02*
X1911350D01*
Y1282805D01*
X1913889Y1280266D01*
X1924046D01*
X1926585Y1282805D01*
Y1290423D01*
X1911350Y1257413D02*
X1926585D01*
Y1252335D02*
X1911350D01*
X1921507Y1259952D02*
Y1252335D01*
Y1249796D01*
X1916428Y1259952D02*
Y1249796D01*
X1911350Y1242178D02*
X1926585D01*
Y1237100D02*
X1911350D01*
X1921507Y1244717D02*
Y1237100D01*
Y1234561D01*
X1916428Y1244717D02*
Y1234561D01*
X245110Y1468120D02*
X250188D01*
X247649D01*
Y1483355D01*
X245110Y1480816D01*
X280667Y1468120D02*
X270510D01*
X280667Y1478277D01*
Y1480816D01*
X278127Y1483355D01*
X273049D01*
X270510Y1480816D01*
X294640D02*
X297179Y1483355D01*
X302257D01*
X304797Y1480816D01*
Y1478277D01*
X302257Y1475737D01*
X299718D01*
X302257D01*
X304797Y1473198D01*
Y1470659D01*
X302257Y1468120D01*
X297179D01*
X294640Y1470659D01*
X326387Y1468120D02*
Y1483355D01*
X318770Y1475737D01*
X328927D01*
X355597Y1483355D02*
X345440D01*
Y1475737D01*
X350518Y1478277D01*
X353058D01*
X355597Y1475737D01*
Y1470659D01*
X353058Y1468120D01*
X347979D01*
X345440Y1470659D01*
X379727Y1483355D02*
X374648Y1480816D01*
X369570Y1475737D01*
Y1470659D01*
X372109Y1468120D01*
X377188D01*
X379727Y1470659D01*
Y1473198D01*
X377188Y1475737D01*
X369570D01*
X397510Y1483355D02*
X407667D01*
Y1480816D01*
X397510Y1470659D01*
Y1468120D01*
X420370Y1480816D02*
X422909Y1483355D01*
X427988D01*
X430527Y1480816D01*
Y1478277D01*
X427988Y1475737D01*
X430527Y1473198D01*
Y1470659D01*
X427988Y1468120D01*
X422909D01*
X420370Y1470659D01*
Y1473198D01*
X422909Y1475737D01*
X420370Y1478277D01*
Y1480816D01*
X422909Y1475737D02*
X427988D01*
X1475736Y1316990D02*
X1478275Y1314451D01*
Y1309373D01*
X1475736Y1306833D01*
X1473197D01*
X1470658Y1309373D01*
X1468118Y1306833D01*
X1465579D01*
X1463040Y1309373D01*
Y1314451D01*
X1465579Y1316990D01*
X1468118D01*
X1470658Y1314451D01*
X1473197Y1316990D01*
X1475736D01*
X1470658Y1314451D02*
Y1309373D01*
X1478275Y1339850D02*
Y1329693D01*
X1475736D01*
X1465579Y1339850D01*
X1463040D01*
X1478275Y1357633D02*
X1475736Y1362712D01*
X1470658Y1367790D01*
X1465579D01*
X1463040Y1365251D01*
Y1360172D01*
X1465579Y1357633D01*
X1468118D01*
X1470658Y1360172D01*
Y1367790D01*
X1478275Y1381763D02*
Y1391920D01*
X1470658D01*
X1473197Y1386842D01*
Y1384303D01*
X1470658Y1381763D01*
X1465579D01*
X1463040Y1384303D01*
Y1389381D01*
X1465579Y1391920D01*
X1463040Y1410972D02*
X1478275D01*
X1470658Y1418590D01*
Y1408433D01*
X1475736Y1442720D02*
X1478275Y1440181D01*
Y1435103D01*
X1475736Y1432563D01*
X1473197D01*
X1470658Y1435103D01*
Y1437642D01*
Y1435103D01*
X1468118Y1432563D01*
X1465579D01*
X1463040Y1435103D01*
Y1440181D01*
X1465579Y1442720D01*
X1463040Y1456693D02*
Y1466850D01*
X1473197Y1456693D01*
X1475736D01*
X1478275Y1459232D01*
Y1464311D01*
X1475736Y1466850D01*
X1463040Y1492250D02*
Y1487172D01*
Y1489711D01*
X1478275D01*
X1475736Y1492250D01*
X740410Y1112520D02*
Y1127755D01*
X748027D01*
X750567Y1125216D01*
Y1120137D01*
X748027Y1117598D01*
X740410D01*
X745488D02*
X750567Y1112520D01*
X765802Y1127755D02*
X755645D01*
Y1112520D01*
X765802D01*
X755645Y1120137D02*
X760723D01*
X770880Y1127755D02*
Y1112520D01*
X781037D01*
X786115D02*
Y1122677D01*
X791194Y1127755D01*
X796272Y1122677D01*
Y1112520D01*
Y1120137D01*
X786115D01*
X801350Y1127755D02*
Y1125216D01*
X806429Y1120137D01*
X811507Y1125216D01*
Y1127755D01*
X806429Y1120137D02*
Y1112520D01*
X1075687Y1122676D02*
X1073148Y1125215D01*
X1068069D01*
X1065530Y1122676D01*
Y1120137D01*
X1068069Y1117598D01*
X1073148D01*
X1075687Y1115058D01*
Y1112519D01*
X1073148Y1109980D01*
X1068069D01*
X1065530Y1112519D01*
X1088383Y1125215D02*
X1083304D01*
X1080765Y1122676D01*
Y1112519D01*
X1083304Y1109980D01*
X1088383D01*
X1090922Y1112519D01*
Y1122676D01*
X1088383Y1125215D01*
X1096000D02*
Y1109980D01*
X1106157D01*
X1111235Y1125215D02*
X1116314D01*
X1113774D01*
Y1109980D01*
X1111235D01*
X1116314D01*
X1123931Y1125215D02*
Y1109980D01*
X1131549D01*
X1134088Y1112519D01*
Y1122676D01*
X1131549Y1125215D01*
X1123931D01*
X1164558Y1122676D02*
X1162019Y1125215D01*
X1156940D01*
X1154401Y1122676D01*
Y1120137D01*
X1156940Y1117598D01*
X1162019D01*
X1164558Y1115058D01*
Y1112519D01*
X1162019Y1109980D01*
X1156940D01*
X1154401Y1112519D01*
X1169636Y1125215D02*
X1179793D01*
X1174715D01*
Y1109980D01*
X1184871D02*
Y1120137D01*
X1189950Y1125215D01*
X1195028Y1120137D01*
Y1109980D01*
Y1117598D01*
X1184871D01*
X1200107Y1125215D02*
X1210263D01*
X1205185D01*
Y1109980D01*
X1225498Y1125215D02*
X1215341D01*
Y1109980D01*
X1225498D01*
X1215341Y1117598D02*
X1220420D01*
X1245812Y1109980D02*
Y1125215D01*
X1253429D01*
X1255968Y1122676D01*
Y1117598D01*
X1253429Y1115058D01*
X1245812D01*
X1250890D02*
X1255968Y1109980D01*
X1271204Y1125215D02*
X1261047D01*
Y1109980D01*
X1271204D01*
X1261047Y1117598D02*
X1266125D01*
X1276282Y1125215D02*
Y1109980D01*
X1286438D01*
X1291517D02*
Y1120137D01*
X1296595Y1125215D01*
X1301674Y1120137D01*
Y1109980D01*
Y1117598D01*
X1291517D01*
X1306752Y1125215D02*
Y1122676D01*
X1311830Y1117598D01*
X1316909Y1122676D01*
Y1125215D01*
X1311830Y1117598D02*
Y1109980D01*
X1029967Y1033776D02*
X1027428Y1036315D01*
X1022349D01*
X1019810Y1033776D01*
Y1031237D01*
X1022349Y1028698D01*
X1027428D01*
X1029967Y1026158D01*
Y1023619D01*
X1027428Y1021080D01*
X1022349D01*
X1019810Y1023619D01*
X1042663Y1036315D02*
X1037584D01*
X1035045Y1033776D01*
Y1023619D01*
X1037584Y1021080D01*
X1042663D01*
X1045202Y1023619D01*
Y1033776D01*
X1042663Y1036315D01*
X1050280D02*
Y1021080D01*
X1060437D01*
X1065515Y1036315D02*
X1070594D01*
X1068054D01*
Y1021080D01*
X1065515D01*
X1070594D01*
X1078211Y1036315D02*
Y1021080D01*
X1085829D01*
X1088368Y1023619D01*
Y1033776D01*
X1085829Y1036315D01*
X1078211D01*
X1118838Y1033776D02*
X1116299Y1036315D01*
X1111220D01*
X1108681Y1033776D01*
Y1031237D01*
X1111220Y1028698D01*
X1116299D01*
X1118838Y1026158D01*
Y1023619D01*
X1116299Y1021080D01*
X1111220D01*
X1108681Y1023619D01*
X1123916Y1036315D02*
X1134073D01*
X1128995D01*
Y1021080D01*
X1139151D02*
Y1031237D01*
X1144230Y1036315D01*
X1149308Y1031237D01*
Y1021080D01*
Y1028698D01*
X1139151D01*
X1154387Y1036315D02*
X1164543D01*
X1159465D01*
Y1021080D01*
X1179778Y1036315D02*
X1169622D01*
Y1021080D01*
X1179778D01*
X1169622Y1028698D02*
X1174700D01*
X1200092Y1021080D02*
Y1036315D01*
X1207709D01*
X1210248Y1033776D01*
Y1028698D01*
X1207709Y1026158D01*
X1200092D01*
X1205170D02*
X1210248Y1021080D01*
X1225483Y1036315D02*
X1215327D01*
Y1021080D01*
X1225483D01*
X1215327Y1028698D02*
X1220405D01*
X1230562Y1036315D02*
Y1021080D01*
X1240719D01*
X1245797D02*
Y1031237D01*
X1250875Y1036315D01*
X1255954Y1031237D01*
Y1021080D01*
Y1028698D01*
X1245797D01*
X1261032Y1036315D02*
Y1033776D01*
X1266110Y1028698D01*
X1271189Y1033776D01*
Y1036315D01*
X1266110Y1028698D02*
Y1021080D01*
X838200Y1019810D02*
Y1035045D01*
X845817D01*
X848357Y1032506D01*
Y1027428D01*
X845817Y1024888D01*
X838200D01*
X843278D02*
X848357Y1019810D01*
X863592Y1035045D02*
X853435D01*
Y1019810D01*
X863592D01*
X853435Y1027428D02*
X858513D01*
X868670Y1035045D02*
Y1019810D01*
X878827D01*
X883905D02*
Y1029967D01*
X888984Y1035045D01*
X894062Y1029967D01*
Y1019810D01*
Y1027428D01*
X883905D01*
X899140Y1035045D02*
Y1032506D01*
X904219Y1027428D01*
X909297Y1032506D01*
Y1035045D01*
X904219Y1027428D02*
Y1019810D01*
X120646Y1145540D02*
X112182D01*
X107950Y1141308D01*
X112182Y1137076D01*
X120646D01*
Y1132844D02*
Y1128612D01*
Y1130728D01*
X107950D01*
Y1132844D01*
Y1128612D01*
Y1122264D02*
X120646D01*
X107950Y1113800D01*
X120646D01*
X143930Y1138346D02*
X146046Y1140462D01*
Y1144694D01*
X143930Y1146810D01*
X135466D01*
X133350Y1144694D01*
Y1140462D01*
X135466Y1138346D01*
X139698D01*
Y1142578D01*
X133350Y1134114D02*
X146046D01*
X133350Y1125650D01*
X146046D01*
Y1121418D02*
X133350D01*
Y1115070D01*
X135466Y1112954D01*
X143930D01*
X146046Y1115070D01*
Y1121418D01*
X169330Y1172636D02*
X171446Y1174752D01*
Y1178984D01*
X169330Y1181100D01*
X160866D01*
X158750Y1178984D01*
Y1174752D01*
X160866Y1172636D01*
X165098D01*
Y1176868D01*
X158750Y1168404D02*
X171446D01*
Y1162056D01*
X169330Y1159940D01*
X165098D01*
X162982Y1162056D01*
Y1168404D01*
X171446Y1155708D02*
Y1151476D01*
Y1153592D01*
X158750D01*
Y1155708D01*
Y1151476D01*
X171446Y1138780D02*
Y1143012D01*
X169330Y1145128D01*
X160866D01*
X158750Y1143012D01*
Y1138780D01*
X160866Y1136664D01*
X169330D01*
X171446Y1138780D01*
X158750Y1132432D02*
Y1128201D01*
Y1130316D01*
X171446D01*
X169330Y1132432D01*
Y1121852D02*
X171446Y1119736D01*
Y1115505D01*
X169330Y1113389D01*
X167214D01*
X165098Y1115505D01*
Y1117620D01*
Y1115505D01*
X162982Y1113389D01*
X160866D01*
X158750Y1115505D01*
Y1119736D01*
X160866Y1121852D01*
X194730Y1172636D02*
X196846Y1174752D01*
Y1178984D01*
X194730Y1181100D01*
X186266D01*
X184150Y1178984D01*
Y1174752D01*
X186266Y1172636D01*
X190498D01*
Y1176868D01*
X184150Y1168404D02*
X196846D01*
Y1162056D01*
X194730Y1159940D01*
X190498D01*
X188382Y1162056D01*
Y1168404D01*
X196846Y1155708D02*
Y1151476D01*
Y1153592D01*
X184150D01*
Y1155708D01*
Y1151476D01*
X196846Y1138780D02*
Y1143012D01*
X194730Y1145128D01*
X186266D01*
X184150Y1143012D01*
Y1138780D01*
X186266Y1136664D01*
X194730D01*
X196846Y1138780D01*
X184150Y1132432D02*
Y1128201D01*
Y1130316D01*
X196846D01*
X194730Y1132432D01*
X184150Y1113389D02*
Y1121852D01*
X192614Y1113389D01*
X194730D01*
X196846Y1115505D01*
Y1119736D01*
X194730Y1121852D01*
X220130Y1172636D02*
X222246Y1174752D01*
Y1178984D01*
X220130Y1181100D01*
X211666D01*
X209550Y1178984D01*
Y1174752D01*
X211666Y1172636D01*
X215898D01*
Y1176868D01*
X209550Y1168404D02*
X222246D01*
Y1162056D01*
X220130Y1159940D01*
X215898D01*
X213782Y1162056D01*
Y1168404D01*
X222246Y1155708D02*
Y1151476D01*
Y1153592D01*
X209550D01*
Y1155708D01*
Y1151476D01*
X222246Y1138780D02*
Y1143012D01*
X220130Y1145128D01*
X211666D01*
X209550Y1143012D01*
Y1138780D01*
X211666Y1136664D01*
X220130D01*
X222246Y1138780D01*
X209550Y1132432D02*
Y1128201D01*
Y1130316D01*
X222246D01*
X220130Y1132432D01*
X209550Y1115505D02*
X222246D01*
X215898Y1121852D01*
Y1113389D01*
X245530Y1175176D02*
X247646Y1177292D01*
Y1181524D01*
X245530Y1183640D01*
X237066D01*
X234950Y1181524D01*
Y1177292D01*
X237066Y1175176D01*
X241298D01*
Y1179408D01*
X234950Y1170944D02*
X247646D01*
Y1164596D01*
X245530Y1162480D01*
X241298D01*
X239182Y1164596D01*
Y1170944D01*
X247646Y1158248D02*
Y1154016D01*
Y1156132D01*
X234950D01*
Y1158248D01*
Y1154016D01*
X247646Y1141320D02*
Y1145552D01*
X245530Y1147668D01*
X237066D01*
X234950Y1145552D01*
Y1141320D01*
X237066Y1139204D01*
X245530D01*
X247646Y1141320D01*
X234950Y1126508D02*
Y1134972D01*
X243414Y1126508D01*
X245530D01*
X247646Y1128624D01*
Y1132857D01*
X245530Y1134972D01*
X247646Y1122277D02*
Y1113813D01*
X245530D01*
X237066Y1122277D01*
X234950D01*
X270930Y1175176D02*
X273046Y1177292D01*
Y1181524D01*
X270930Y1183640D01*
X262466D01*
X260350Y1181524D01*
Y1177292D01*
X262466Y1175176D01*
X266698D01*
Y1179408D01*
X260350Y1170944D02*
X273046D01*
Y1164596D01*
X270930Y1162480D01*
X266698D01*
X264582Y1164596D01*
Y1170944D01*
X273046Y1158248D02*
Y1154016D01*
Y1156132D01*
X260350D01*
Y1158248D01*
Y1154016D01*
X273046Y1141320D02*
Y1145552D01*
X270930Y1147668D01*
X262466D01*
X260350Y1145552D01*
Y1141320D01*
X262466Y1139204D01*
X270930D01*
X273046Y1141320D01*
X260350Y1126508D02*
Y1134972D01*
X268814Y1126508D01*
X270930D01*
X273046Y1128624D01*
Y1132857D01*
X270930Y1134972D01*
X273046Y1113813D02*
X270930Y1118045D01*
X266698Y1122277D01*
X262466D01*
X260350Y1120161D01*
Y1115929D01*
X262466Y1113813D01*
X264582D01*
X266698Y1115929D01*
Y1122277D01*
X296330Y1175176D02*
X298446Y1177292D01*
Y1181524D01*
X296330Y1183640D01*
X287866D01*
X285750Y1181524D01*
Y1177292D01*
X287866Y1175176D01*
X292098D01*
Y1179408D01*
X285750Y1170944D02*
X298446D01*
Y1164596D01*
X296330Y1162480D01*
X292098D01*
X289982Y1164596D01*
Y1170944D01*
X298446Y1158248D02*
Y1154016D01*
Y1156132D01*
X285750D01*
Y1158248D01*
Y1154016D01*
X298446Y1141320D02*
Y1145552D01*
X296330Y1147668D01*
X287866D01*
X285750Y1145552D01*
Y1141320D01*
X287866Y1139204D01*
X296330D01*
X298446Y1141320D01*
X285750Y1126508D02*
Y1134972D01*
X294214Y1126508D01*
X296330D01*
X298446Y1128624D01*
Y1132857D01*
X296330Y1134972D01*
X298446Y1113813D02*
Y1122277D01*
X292098D01*
X294214Y1118045D01*
Y1115929D01*
X292098Y1113813D01*
X287866D01*
X285750Y1115929D01*
Y1120161D01*
X287866Y1122277D01*
X321730Y1175176D02*
X323846Y1177292D01*
Y1181524D01*
X321730Y1183640D01*
X313266D01*
X311150Y1181524D01*
Y1177292D01*
X313266Y1175176D01*
X317498D01*
Y1179408D01*
X311150Y1170944D02*
X323846D01*
Y1164596D01*
X321730Y1162480D01*
X317498D01*
X315382Y1164596D01*
Y1170944D01*
X323846Y1158248D02*
Y1154016D01*
Y1156132D01*
X311150D01*
Y1158248D01*
Y1154016D01*
X323846Y1141320D02*
Y1145552D01*
X321730Y1147668D01*
X313266D01*
X311150Y1145552D01*
Y1141320D01*
X313266Y1139204D01*
X321730D01*
X323846Y1141320D01*
X321730Y1134972D02*
X323846Y1132857D01*
Y1128624D01*
X321730Y1126508D01*
X319614D01*
X317498Y1128624D01*
Y1130741D01*
Y1128624D01*
X315382Y1126508D01*
X313266D01*
X311150Y1128624D01*
Y1132857D01*
X313266Y1134972D01*
X321730Y1122277D02*
X323846Y1120161D01*
Y1115929D01*
X321730Y1113813D01*
X319614D01*
X317498Y1115929D01*
Y1118045D01*
Y1115929D01*
X315382Y1113813D01*
X313266D01*
X311150Y1115929D01*
Y1120161D01*
X313266Y1122277D01*
X347130Y1175176D02*
X349246Y1177292D01*
Y1181524D01*
X347130Y1183640D01*
X338666D01*
X336550Y1181524D01*
Y1177292D01*
X338666Y1175176D01*
X342898D01*
Y1179408D01*
X336550Y1170944D02*
X349246D01*
Y1164596D01*
X347130Y1162480D01*
X342898D01*
X340782Y1164596D01*
Y1170944D01*
X349246Y1158248D02*
Y1154016D01*
Y1156132D01*
X336550D01*
Y1158248D01*
Y1154016D01*
X349246Y1141320D02*
Y1145552D01*
X347130Y1147668D01*
X338666D01*
X336550Y1145552D01*
Y1141320D01*
X338666Y1139204D01*
X347130D01*
X349246Y1141320D01*
X347130Y1134972D02*
X349246Y1132857D01*
Y1128624D01*
X347130Y1126508D01*
X345014D01*
X342898Y1128624D01*
Y1130741D01*
Y1128624D01*
X340782Y1126508D01*
X338666D01*
X336550Y1128624D01*
Y1132857D01*
X338666Y1134972D01*
X336550Y1113813D02*
Y1122277D01*
X345014Y1113813D01*
X347130D01*
X349246Y1115929D01*
Y1120161D01*
X347130Y1122277D01*
X372530Y1175176D02*
X374646Y1177292D01*
Y1181524D01*
X372530Y1183640D01*
X364066D01*
X361950Y1181524D01*
Y1177292D01*
X364066Y1175176D01*
X368298D01*
Y1179408D01*
X361950Y1170944D02*
X374646D01*
Y1164596D01*
X372530Y1162480D01*
X368298D01*
X366182Y1164596D01*
Y1170944D01*
X374646Y1158248D02*
Y1154016D01*
Y1156132D01*
X361950D01*
Y1158248D01*
Y1154016D01*
X374646Y1141320D02*
Y1145552D01*
X372530Y1147668D01*
X364066D01*
X361950Y1145552D01*
Y1141320D01*
X364066Y1139204D01*
X372530D01*
X374646Y1141320D01*
X372530Y1134972D02*
X374646Y1132857D01*
Y1128624D01*
X372530Y1126508D01*
X370414D01*
X368298Y1128624D01*
Y1130741D01*
Y1128624D01*
X366182Y1126508D01*
X364066D01*
X361950Y1128624D01*
Y1132857D01*
X364066Y1134972D01*
X374646Y1113813D02*
Y1122277D01*
X368298D01*
X370414Y1118045D01*
Y1115929D01*
X368298Y1113813D01*
X364066D01*
X361950Y1115929D01*
Y1120161D01*
X364066Y1122277D01*
X397930Y1175176D02*
X400046Y1177292D01*
Y1181524D01*
X397930Y1183640D01*
X389466D01*
X387350Y1181524D01*
Y1177292D01*
X389466Y1175176D01*
X393698D01*
Y1179408D01*
X387350Y1170944D02*
X400046D01*
Y1164596D01*
X397930Y1162480D01*
X393698D01*
X391582Y1164596D01*
Y1170944D01*
X400046Y1158248D02*
Y1154016D01*
Y1156132D01*
X387350D01*
Y1158248D01*
Y1154016D01*
X400046Y1141320D02*
Y1145552D01*
X397930Y1147668D01*
X389466D01*
X387350Y1145552D01*
Y1141320D01*
X389466Y1139204D01*
X397930D01*
X400046Y1141320D01*
X397930Y1134972D02*
X400046Y1132857D01*
Y1128624D01*
X397930Y1126508D01*
X395814D01*
X393698Y1128624D01*
Y1130741D01*
Y1128624D01*
X391582Y1126508D01*
X389466D01*
X387350Y1128624D01*
Y1132857D01*
X389466Y1134972D01*
X387350Y1115929D02*
X400046D01*
X393698Y1122277D01*
Y1113813D01*
X423330Y1175176D02*
X425446Y1177292D01*
Y1181524D01*
X423330Y1183640D01*
X414866D01*
X412750Y1181524D01*
Y1177292D01*
X414866Y1175176D01*
X419098D01*
Y1179408D01*
X412750Y1170944D02*
X425446D01*
Y1164596D01*
X423330Y1162480D01*
X419098D01*
X416982Y1164596D01*
Y1170944D01*
X425446Y1158248D02*
Y1154016D01*
Y1156132D01*
X412750D01*
Y1158248D01*
Y1154016D01*
X425446Y1141320D02*
Y1145552D01*
X423330Y1147668D01*
X414866D01*
X412750Y1145552D01*
Y1141320D01*
X414866Y1139204D01*
X423330D01*
X425446Y1141320D01*
X423330Y1134972D02*
X425446Y1132857D01*
Y1128624D01*
X423330Y1126508D01*
X421214D01*
X419098Y1128624D01*
Y1130741D01*
Y1128624D01*
X416982Y1126508D01*
X414866D01*
X412750Y1128624D01*
Y1132857D01*
X414866Y1134972D01*
Y1122277D02*
X412750Y1120161D01*
Y1115929D01*
X414866Y1113813D01*
X423330D01*
X425446Y1115929D01*
Y1120161D01*
X423330Y1122277D01*
X421214D01*
X419098Y1120161D01*
Y1113813D01*
X448730Y1175176D02*
X450846Y1177292D01*
Y1181524D01*
X448730Y1183640D01*
X440266D01*
X438150Y1181524D01*
Y1177292D01*
X440266Y1175176D01*
X444498D01*
Y1179408D01*
X438150Y1170944D02*
X450846D01*
Y1164596D01*
X448730Y1162480D01*
X444498D01*
X442382Y1164596D01*
Y1170944D01*
X450846Y1158248D02*
Y1154016D01*
Y1156132D01*
X438150D01*
Y1158248D01*
Y1154016D01*
X450846Y1141320D02*
Y1145552D01*
X448730Y1147668D01*
X440266D01*
X438150Y1145552D01*
Y1141320D01*
X440266Y1139204D01*
X448730D01*
X450846Y1141320D01*
X448730Y1134972D02*
X450846Y1132857D01*
Y1128624D01*
X448730Y1126508D01*
X446614D01*
X444498Y1128624D01*
Y1130741D01*
Y1128624D01*
X442382Y1126508D01*
X440266D01*
X438150Y1128624D01*
Y1132857D01*
X440266Y1134972D01*
X450846Y1113813D02*
X448730Y1118045D01*
X444498Y1122277D01*
X440266D01*
X438150Y1120161D01*
Y1115929D01*
X440266Y1113813D01*
X442382D01*
X444498Y1115929D01*
Y1122277D01*
X476246Y1125646D02*
Y1134110D01*
X463550D01*
Y1125646D01*
X469898Y1134110D02*
Y1129878D01*
X463550Y1121414D02*
X476246D01*
X463550Y1112950D01*
X476246D01*
X111981Y672923D02*
X114096Y670807D01*
Y666575D01*
X111981Y664459D01*
X109865D01*
X107749Y666575D01*
Y668691D01*
Y666575D01*
X105633Y664459D01*
X103517D01*
X101401Y666575D01*
Y670807D01*
X103517Y672923D01*
X101401Y660227D02*
X103517D01*
Y658111D01*
X101401D01*
Y660227D01*
X111981Y649647D02*
X114096Y647531D01*
Y643299D01*
X111981Y641183D01*
X109865D01*
X107749Y643299D01*
Y645415D01*
Y643299D01*
X105633Y641183D01*
X103517D01*
X101401Y643299D01*
Y647531D01*
X103517Y649647D01*
X114096Y636951D02*
X105633D01*
X101401Y632719D01*
X105633Y628487D01*
X114096D01*
X143731Y664459D02*
X145847Y666575D01*
Y670807D01*
X143731Y672923D01*
X135267D01*
X133151Y670807D01*
Y666575D01*
X135267Y664459D01*
X139499D01*
Y668691D01*
X133151Y660227D02*
X145847D01*
X133151Y651763D01*
X145847D01*
Y647531D02*
X133151D01*
Y641183D01*
X135267Y639067D01*
X143731D01*
X145847Y641183D01*
Y647531D01*
X169131Y664459D02*
X171246Y666575D01*
Y670807D01*
X169131Y672923D01*
X160667D01*
X158551Y670807D01*
Y666575D01*
X160667Y664459D01*
X164899D01*
Y668691D01*
X158551Y660227D02*
X171246D01*
Y653879D01*
X169131Y651763D01*
X164899D01*
X162783Y653879D01*
Y660227D01*
X171246Y647531D02*
Y643299D01*
Y645415D01*
X158551D01*
Y647531D01*
Y643299D01*
X171246Y630603D02*
Y634835D01*
X169131Y636951D01*
X160667D01*
X158551Y634835D01*
Y630603D01*
X160667Y628487D01*
X169131D01*
X171246Y630603D01*
X158551Y624255D02*
Y620023D01*
Y622139D01*
X171246D01*
X169131Y624255D01*
X171246Y605211D02*
Y613675D01*
X164899D01*
X167015Y609444D01*
Y607327D01*
X164899Y605211D01*
X160667D01*
X158551Y607327D01*
Y611559D01*
X160667Y613675D01*
X194531Y664459D02*
X196646Y666575D01*
Y670807D01*
X194531Y672923D01*
X186067D01*
X183951Y670807D01*
Y666575D01*
X186067Y664459D01*
X190299D01*
Y668691D01*
X183951Y660227D02*
X196646D01*
Y653879D01*
X194531Y651763D01*
X190299D01*
X188183Y653879D01*
Y660227D01*
X196646Y647531D02*
Y643299D01*
Y645415D01*
X183951D01*
Y647531D01*
Y643299D01*
X196646Y630603D02*
Y634835D01*
X194531Y636951D01*
X186067D01*
X183951Y634835D01*
Y630603D01*
X186067Y628487D01*
X194531D01*
X196646Y630603D01*
X183951Y615791D02*
Y624255D01*
X192415Y615791D01*
X194531D01*
X196646Y617907D01*
Y622139D01*
X194531Y624255D01*
X219931Y664459D02*
X222047Y666575D01*
Y670807D01*
X219931Y672923D01*
X211467D01*
X209351Y670807D01*
Y666575D01*
X211467Y664459D01*
X215699D01*
Y668691D01*
X209351Y660227D02*
X222047D01*
Y653879D01*
X219931Y651763D01*
X215699D01*
X213583Y653879D01*
Y660227D01*
X222047Y647531D02*
Y643299D01*
Y645415D01*
X209351D01*
Y647531D01*
Y643299D01*
X222047Y630603D02*
Y634835D01*
X219931Y636951D01*
X211467D01*
X209351Y634835D01*
Y630603D01*
X211467Y628487D01*
X219931D01*
X222047Y630603D01*
X209351Y617907D02*
X222047D01*
X215699Y624255D01*
Y615791D01*
X245331Y664459D02*
X247446Y666575D01*
Y670807D01*
X245331Y672923D01*
X236867D01*
X234751Y670807D01*
Y666575D01*
X236867Y664459D01*
X241099D01*
Y668691D01*
X234751Y660227D02*
X247446D01*
Y653879D01*
X245331Y651763D01*
X241099D01*
X238983Y653879D01*
Y660227D01*
X247446Y647531D02*
Y643299D01*
Y645415D01*
X234751D01*
Y647531D01*
Y643299D01*
X247446Y630603D02*
Y634835D01*
X245331Y636951D01*
X236867D01*
X234751Y634835D01*
Y630603D01*
X236867Y628487D01*
X245331D01*
X247446Y630603D01*
X234751Y624255D02*
Y620023D01*
Y622139D01*
X247446D01*
X245331Y624255D01*
X247446Y605211D02*
X245331Y609444D01*
X241099Y613675D01*
X236867D01*
X234751Y611559D01*
Y607327D01*
X236867Y605211D01*
X238983D01*
X241099Y607327D01*
Y613675D01*
X270731Y665729D02*
X272847Y667845D01*
Y672077D01*
X270731Y674193D01*
X262267D01*
X260151Y672077D01*
Y667845D01*
X262267Y665729D01*
X266499D01*
Y669961D01*
X260151Y661497D02*
X272847D01*
Y655149D01*
X270731Y653033D01*
X266499D01*
X264383Y655149D01*
Y661497D01*
X272847Y648801D02*
Y644569D01*
Y646685D01*
X260151D01*
Y648801D01*
Y644569D01*
X272847Y631873D02*
Y636105D01*
X270731Y638221D01*
X262267D01*
X260151Y636105D01*
Y631873D01*
X262267Y629757D01*
X270731D01*
X272847Y631873D01*
X260151Y625525D02*
Y621293D01*
Y623409D01*
X272847D01*
X270731Y625525D01*
X272847Y614945D02*
Y606482D01*
X270731D01*
X262267Y614945D01*
X260151D01*
X296131Y664459D02*
X298246Y666575D01*
Y670807D01*
X296131Y672923D01*
X287667D01*
X285551Y670807D01*
Y666575D01*
X287667Y664459D01*
X291899D01*
Y668691D01*
X285551Y660227D02*
X298246D01*
Y653879D01*
X296131Y651763D01*
X291899D01*
X289783Y653879D01*
Y660227D01*
X298246Y647531D02*
Y643299D01*
Y645415D01*
X285551D01*
Y647531D01*
Y643299D01*
X298246Y630603D02*
Y634835D01*
X296131Y636951D01*
X287667D01*
X285551Y634835D01*
Y630603D01*
X287667Y628487D01*
X296131D01*
X298246Y630603D01*
Y615791D02*
Y624255D01*
X291899D01*
X294015Y620023D01*
Y617907D01*
X291899Y615791D01*
X287667D01*
X285551Y617907D01*
Y622139D01*
X287667Y624255D01*
X321531Y664459D02*
X323647Y666575D01*
Y670807D01*
X321531Y672923D01*
X313067D01*
X310951Y670807D01*
Y666575D01*
X313067Y664459D01*
X317299D01*
Y668691D01*
X310951Y660227D02*
X323647D01*
Y653879D01*
X321531Y651763D01*
X317299D01*
X315183Y653879D01*
Y660227D01*
X323647Y647531D02*
Y643299D01*
Y645415D01*
X310951D01*
Y647531D01*
Y643299D01*
X323647Y630603D02*
Y634835D01*
X321531Y636951D01*
X313067D01*
X310951Y634835D01*
Y630603D01*
X313067Y628487D01*
X321531D01*
X323647Y630603D01*
X310951Y624255D02*
Y620023D01*
Y622139D01*
X323647D01*
X321531Y624255D01*
Y613675D02*
X323647Y611559D01*
Y607327D01*
X321531Y605211D01*
X319415D01*
X317299Y607327D01*
X315183Y605211D01*
X313067D01*
X310951Y607327D01*
Y611559D01*
X313067Y613675D01*
X315183D01*
X317299Y611559D01*
X319415Y613675D01*
X321531D01*
X317299Y611559D02*
Y607327D01*
X346931Y664459D02*
X349047Y666575D01*
Y670807D01*
X346931Y672923D01*
X338467D01*
X336351Y670807D01*
Y666575D01*
X338467Y664459D01*
X342699D01*
Y668691D01*
X336351Y660227D02*
X349047D01*
Y653879D01*
X346931Y651763D01*
X342699D01*
X340583Y653879D01*
Y660227D01*
X349047Y647531D02*
Y643299D01*
Y645415D01*
X336351D01*
Y647531D01*
Y643299D01*
X349047Y630603D02*
Y634835D01*
X346931Y636951D01*
X338467D01*
X336351Y634835D01*
Y630603D01*
X338467Y628487D01*
X346931D01*
X349047Y630603D01*
X336351Y624255D02*
Y620023D01*
Y622139D01*
X349047D01*
X346931Y624255D01*
X338467Y613675D02*
X336351Y611559D01*
Y607327D01*
X338467Y605211D01*
X346931D01*
X349047Y607327D01*
Y611559D01*
X346931Y613675D01*
X344815D01*
X342699Y611559D01*
Y605211D01*
X372331Y664459D02*
X374446Y666575D01*
Y670807D01*
X372331Y672923D01*
X363867D01*
X361751Y670807D01*
Y666575D01*
X363867Y664459D01*
X368099D01*
Y668691D01*
X361751Y660227D02*
X374446D01*
Y653879D01*
X372331Y651763D01*
X368099D01*
X365983Y653879D01*
Y660227D01*
X374446Y647531D02*
Y643299D01*
Y645415D01*
X361751D01*
Y647531D01*
Y643299D01*
X374446Y630603D02*
Y634835D01*
X372331Y636951D01*
X363867D01*
X361751Y634835D01*
Y630603D01*
X363867Y628487D01*
X372331D01*
X374446Y630603D01*
X361751Y615791D02*
Y624255D01*
X370215Y615791D01*
X372331D01*
X374446Y617907D01*
Y622139D01*
X372331Y624255D01*
X361751Y611559D02*
Y607327D01*
Y609444D01*
X374446D01*
X372331Y611559D01*
X361751Y600979D02*
X370215Y592516D01*
X372331Y579820D02*
X374446Y581936D01*
Y586168D01*
X372331Y588284D01*
X370215D01*
X368099Y586168D01*
Y581936D01*
X365983Y579820D01*
X363867D01*
X361751Y581936D01*
Y586168D01*
X363867Y588284D01*
X374446Y575588D02*
X361751D01*
Y569240D01*
X363867Y567124D01*
X372331D01*
X374446Y569240D01*
Y575588D01*
X361751Y562892D02*
X370215D01*
X374446Y558660D01*
X370215Y554428D01*
X361751D01*
X368099D01*
Y562892D01*
X397731Y664459D02*
X399846Y666575D01*
Y670807D01*
X397731Y672923D01*
X389267D01*
X387151Y670807D01*
Y666575D01*
X389267Y664459D01*
X393499D01*
Y668691D01*
X387151Y660227D02*
X399846D01*
Y653879D01*
X397731Y651763D01*
X393499D01*
X391383Y653879D01*
Y660227D01*
X399846Y647531D02*
Y643299D01*
Y645415D01*
X387151D01*
Y647531D01*
Y643299D01*
X399846Y630603D02*
Y634835D01*
X397731Y636951D01*
X389267D01*
X387151Y634835D01*
Y630603D01*
X389267Y628487D01*
X397731D01*
X399846Y630603D01*
X397731Y624255D02*
X399846Y622139D01*
Y617907D01*
X397731Y615791D01*
X395615D01*
X393499Y617907D01*
Y620023D01*
Y617907D01*
X391383Y615791D01*
X389267D01*
X387151Y617907D01*
Y622139D01*
X389267Y624255D01*
X423131Y664459D02*
X425247Y666575D01*
Y670807D01*
X423131Y672923D01*
X414667D01*
X412551Y670807D01*
Y666575D01*
X414667Y664459D01*
X418899D01*
Y668691D01*
X412551Y660227D02*
X425247D01*
Y653879D01*
X423131Y651763D01*
X418899D01*
X416783Y653879D01*
Y660227D01*
X425247Y647531D02*
Y643299D01*
Y645415D01*
X412551D01*
Y647531D01*
Y643299D01*
X425247Y630603D02*
Y634835D01*
X423131Y636951D01*
X414667D01*
X412551Y634835D01*
Y630603D01*
X414667Y628487D01*
X423131D01*
X425247Y630603D01*
X412551Y624255D02*
Y620023D01*
Y622139D01*
X425247D01*
X423131Y624255D01*
X448531Y664459D02*
X450647Y666575D01*
Y670807D01*
X448531Y672923D01*
X440067D01*
X437951Y670807D01*
Y666575D01*
X440067Y664459D01*
X444299D01*
Y668691D01*
X437951Y660227D02*
X450647D01*
Y653879D01*
X448531Y651763D01*
X444299D01*
X442183Y653879D01*
Y660227D01*
X450647Y647531D02*
Y643299D01*
Y645415D01*
X437951D01*
Y647531D01*
Y643299D01*
X450647Y630603D02*
Y634835D01*
X448531Y636951D01*
X440067D01*
X437951Y634835D01*
Y630603D01*
X440067Y628487D01*
X448531D01*
X450647Y630603D01*
X437951Y615791D02*
Y624255D01*
X446415Y615791D01*
X448531D01*
X450647Y617907D01*
Y622139D01*
X448531Y624255D01*
X437951Y603096D02*
Y611559D01*
X446415Y603096D01*
X448531D01*
X450647Y605211D01*
Y609444D01*
X448531Y611559D01*
X437951Y598864D02*
X446415Y590400D01*
X448531Y577704D02*
X450647Y579820D01*
Y584052D01*
X448531Y586168D01*
X446415D01*
X444299Y584052D01*
Y579820D01*
X442183Y577704D01*
X440067D01*
X437951Y579820D01*
Y584052D01*
X440067Y586168D01*
X450647Y573472D02*
X437951D01*
Y567124D01*
X440067Y565008D01*
X448531D01*
X450647Y567124D01*
Y573472D01*
Y560776D02*
X437951D01*
Y552312D01*
X473931Y664459D02*
X476046Y666575D01*
Y670807D01*
X473931Y672923D01*
X465467D01*
X463351Y670807D01*
Y666575D01*
X465467Y664459D01*
X469699D01*
Y668691D01*
X463351Y660227D02*
X476046D01*
Y653879D01*
X473931Y651763D01*
X469699D01*
X467583Y653879D01*
Y660227D01*
X476046Y647531D02*
Y643299D01*
Y645415D01*
X463351D01*
Y647531D01*
Y643299D01*
X476046Y630603D02*
Y634835D01*
X473931Y636951D01*
X465467D01*
X463351Y634835D01*
Y630603D01*
X465467Y628487D01*
X473931D01*
X476046Y630603D01*
X463351Y615791D02*
Y624255D01*
X471815Y615791D01*
X473931D01*
X476046Y617907D01*
Y622139D01*
X473931Y624255D01*
Y611559D02*
X476046Y609444D01*
Y605211D01*
X473931Y603096D01*
X471815D01*
X469699Y605211D01*
Y607327D01*
Y605211D01*
X467583Y603096D01*
X465467D01*
X463351Y605211D01*
Y609444D01*
X465467Y611559D01*
X476246Y441963D02*
X478785Y444502D01*
Y449581D01*
X476246Y452120D01*
X466089D01*
X463550Y449581D01*
Y444502D01*
X466089Y441963D01*
X471167D01*
Y447042D01*
X463550Y436885D02*
X478785D01*
X463550Y426728D01*
X478785D01*
Y421650D02*
X463550D01*
Y414032D01*
X466089Y411493D01*
X476246D01*
X478785Y414032D01*
Y421650D01*
X499108Y452120D02*
Y441963D01*
X504186Y447042D02*
X494029D01*
X506725Y426728D02*
Y436885D01*
X499108D01*
X501647Y431807D01*
Y429267D01*
X499108Y426728D01*
X494029D01*
X491490Y429267D01*
Y434346D01*
X494029Y436885D01*
X506725Y421650D02*
X496568D01*
X491490Y416572D01*
X496568Y411493D01*
X506725D01*
X529586Y441963D02*
X532125Y444502D01*
Y449581D01*
X529586Y452120D01*
X527047D01*
X524507Y449581D01*
Y444502D01*
X521968Y441963D01*
X519429D01*
X516890Y444502D01*
Y449581D01*
X519429Y452120D01*
X532125Y436885D02*
X516890D01*
Y429267D01*
X519429Y426728D01*
X529586D01*
X532125Y429267D01*
Y436885D01*
Y421650D02*
X516890D01*
Y411493D01*
X554986Y441963D02*
X557525Y444502D01*
Y449581D01*
X554986Y452120D01*
X552447D01*
X549907Y449581D01*
Y444502D01*
X547368Y441963D01*
X544829D01*
X542290Y444502D01*
Y449581D01*
X544829Y452120D01*
X557525Y436885D02*
X542290D01*
Y429267D01*
X544829Y426728D01*
X554986D01*
X557525Y429267D01*
Y436885D01*
X542290Y421650D02*
X552447D01*
X557525Y416572D01*
X552447Y411493D01*
X542290D01*
X549907D01*
Y421650D01*
X1739897Y778506D02*
X1737357Y781045D01*
X1732279D01*
X1729740Y778506D01*
Y768349D01*
X1732279Y765810D01*
X1737357D01*
X1739897Y768349D01*
Y773428D01*
X1734818D01*
X1744975Y765810D02*
Y781045D01*
X1755132Y765810D01*
Y781045D01*
X1760210D02*
Y765810D01*
X1767828D01*
X1770367Y768349D01*
Y778506D01*
X1767828Y781045D01*
X1760210D01*
X1701800Y748027D02*
X1711957D01*
X1706878Y753106D02*
Y742949D01*
X1717035Y753106D02*
X1719574Y755645D01*
X1724653D01*
X1727192Y753106D01*
Y750567D01*
X1724653Y748027D01*
X1722113D01*
X1724653D01*
X1727192Y745488D01*
Y742949D01*
X1724653Y740410D01*
X1719574D01*
X1717035Y742949D01*
X1732270Y740410D02*
Y742949D01*
X1734809D01*
Y740410D01*
X1732270D01*
X1744966Y753106D02*
X1747505Y755645D01*
X1752584D01*
X1755123Y753106D01*
Y750567D01*
X1752584Y748027D01*
X1750044D01*
X1752584D01*
X1755123Y745488D01*
Y742949D01*
X1752584Y740410D01*
X1747505D01*
X1744966Y742949D01*
X1760201Y755645D02*
Y745488D01*
X1765280Y740410D01*
X1770358Y745488D01*
Y755645D01*
X1714500Y822960D02*
Y833117D01*
X1719578Y838195D01*
X1724657Y833117D01*
Y822960D01*
Y830577D01*
X1714500D01*
X1737353Y838195D02*
X1732274D01*
X1729735Y835656D01*
Y825499D01*
X1732274Y822960D01*
X1737353D01*
X1739892Y825499D01*
Y835656D01*
X1737353Y838195D01*
X1744970D02*
Y825499D01*
X1747509Y822960D01*
X1752588D01*
X1755127Y825499D01*
Y838195D01*
X1760205D02*
X1770362D01*
X1765284D01*
Y822960D01*
X193037Y901695D02*
X182880D01*
Y886460D01*
X193037D01*
X182880Y894078D02*
X187958D01*
X208272Y899156D02*
X205733Y901695D01*
X200654D01*
X198115Y899156D01*
Y896617D01*
X200654Y894078D01*
X205733D01*
X208272Y891538D01*
Y888999D01*
X205733Y886460D01*
X200654D01*
X198115Y888999D01*
X213350Y886460D02*
Y901695D01*
X220968D01*
X223507Y899156D01*
Y894078D01*
X220968Y891538D01*
X213350D01*
X228585Y899156D02*
X231124Y901695D01*
X236203D01*
X238742Y899156D01*
Y896617D01*
X236203Y894078D01*
X233664D01*
X236203D01*
X238742Y891538D01*
Y888999D01*
X236203Y886460D01*
X231124D01*
X228585Y888999D01*
X253977Y886460D02*
X243820D01*
X253977Y896617D01*
Y899156D01*
X251438Y901695D01*
X246360D01*
X243820Y899156D01*
X274290Y901695D02*
Y886460D01*
X281908D01*
X284447Y888999D01*
Y899156D01*
X281908Y901695D01*
X274290D01*
X299682D02*
X289526D01*
Y886460D01*
X299682D01*
X289526Y894078D02*
X294604D01*
X304761Y901695D02*
Y891538D01*
X309839Y886460D01*
X314917Y891538D01*
Y901695D01*
X319996D02*
Y886460D01*
Y891538D01*
X330152Y901695D01*
X322535Y894078D01*
X330152Y886460D01*
X335231Y901695D02*
X340309D01*
X337770D01*
Y886460D01*
X335231D01*
X340309D01*
X347927Y901695D02*
X358083D01*
X353005D01*
Y886460D01*
X378397Y901695D02*
Y891538D01*
X383475Y886460D01*
X388554Y891538D01*
Y901695D01*
X393632Y886460D02*
X398710D01*
X396171D01*
Y901695D01*
X393632Y899156D01*
X1744980Y812795D02*
Y797560D01*
X1752598D01*
X1755137Y800099D01*
Y810256D01*
X1752598Y812795D01*
X1744980D01*
X1767833D02*
X1762754D01*
X1760215Y810256D01*
Y800099D01*
X1762754Y797560D01*
X1767833D01*
X1770372Y800099D01*
Y810256D01*
X1767833Y812795D01*
X572770Y933445D02*
Y918210D01*
X580387D01*
X582927Y920749D01*
Y923288D01*
X580387Y925827D01*
X572770D01*
X580387D01*
X582927Y928367D01*
Y930906D01*
X580387Y933445D01*
X572770D01*
X588005D02*
X598162D01*
Y930906D01*
X588005Y920749D01*
Y918210D01*
X598162D01*
X603240D02*
X608318D01*
X605779D01*
Y933445D01*
X603240Y930906D01*
X647954Y686562D02*
Y701797D01*
X655572D01*
X658111Y699258D01*
Y694180D01*
X655572Y691640D01*
X647954D01*
X653032D02*
X658111Y686562D01*
X673346D02*
X663189D01*
X673346Y696719D01*
Y699258D01*
X670807Y701797D01*
X665728D01*
X663189Y699258D01*
X688581Y701797D02*
X683503Y699258D01*
X678424Y694180D01*
Y689101D01*
X680963Y686562D01*
X686042D01*
X688581Y689101D01*
Y691640D01*
X686042Y694180D01*
X678424D01*
X660143Y766317D02*
Y776474D01*
X657604Y779013D01*
X652525D01*
X649986Y776474D01*
Y766317D01*
X652525Y763778D01*
X657604D01*
X655064Y768856D02*
X660143Y763778D01*
X657604D02*
X660143Y766317D01*
X665221Y776474D02*
X667760Y779013D01*
X672839D01*
X675378Y776474D01*
Y773935D01*
X672839Y771395D01*
X670299D01*
X672839D01*
X675378Y768856D01*
Y766317D01*
X672839Y763778D01*
X667760D01*
X665221Y766317D01*
X751586Y1562100D02*
Y1577335D01*
X759203D01*
X761743Y1574796D01*
Y1569718D01*
X759203Y1567178D01*
X751586D01*
X756664D02*
X761743Y1562100D01*
X766821Y1577335D02*
Y1574796D01*
X771899Y1569718D01*
X776978Y1574796D01*
Y1577335D01*
X771899Y1569718D02*
Y1562100D01*
X782056D02*
X787134D01*
X784595D01*
Y1577335D01*
X782056Y1574796D01*
X1271281Y908050D02*
X1281438D01*
X1276359Y913128D02*
Y902972D01*
X1286516Y913128D02*
X1289055Y915667D01*
X1294134D01*
X1296673Y913128D01*
Y910589D01*
X1294134Y908050D01*
X1291595D01*
X1294134D01*
X1296673Y905511D01*
Y902972D01*
X1294134Y900433D01*
X1289055D01*
X1286516Y902972D01*
X1301751Y900433D02*
Y902972D01*
X1304290D01*
Y900433D01*
X1301751D01*
X1314447Y913128D02*
X1316986Y915667D01*
X1322065D01*
X1324604Y913128D01*
Y910589D01*
X1322065Y908050D01*
X1319525D01*
X1322065D01*
X1324604Y905511D01*
Y902972D01*
X1322065Y900433D01*
X1316986D01*
X1314447Y902972D01*
X1329682Y915667D02*
Y905511D01*
X1334761Y900433D01*
X1339839Y905511D01*
Y915667D01*
X1117600Y905508D02*
X1127757D01*
X1122678Y910586D02*
Y900429D01*
X1142992Y913125D02*
X1132835D01*
Y905508D01*
X1137913Y908047D01*
X1140453D01*
X1142992Y905508D01*
Y900429D01*
X1140453Y897890D01*
X1135374D01*
X1132835Y900429D01*
X1148070Y913125D02*
Y902968D01*
X1153148Y897890D01*
X1158227Y902968D01*
Y913125D01*
X630174Y632709D02*
Y617474D01*
X637791D01*
X640331Y620013D01*
Y622552D01*
X637791Y625092D01*
X630174D01*
X637791D01*
X640331Y627631D01*
Y630170D01*
X637791Y632709D01*
X630174D01*
X645409D02*
X655566D01*
Y630170D01*
X645409Y620013D01*
Y617474D01*
X655566D01*
X683497Y632709D02*
X678418D01*
X675879Y630170D01*
Y620013D01*
X678418Y617474D01*
X683497D01*
X686036Y620013D01*
Y630170D01*
X683497Y632709D01*
X691114D02*
Y620013D01*
X693653Y617474D01*
X698732D01*
X701271Y620013D01*
Y632709D01*
X706349D02*
X716506D01*
X711428D01*
Y617474D01*
X199390Y459735D02*
Y444500D01*
X207008D01*
X209547Y447039D01*
Y457196D01*
X207008Y459735D01*
X199390D01*
X214625D02*
Y444500D01*
Y452118D01*
X224782D01*
Y459735D01*
Y444500D01*
X229860Y459735D02*
X240017D01*
X234939D01*
Y444500D01*
X1447803Y911858D02*
X1445264Y914398D01*
X1440186D01*
X1437647Y911858D01*
Y901702D01*
X1440186Y899163D01*
X1445264D01*
X1447803Y901702D01*
Y906780D01*
X1442725D01*
X1452882Y899163D02*
Y914398D01*
X1463038Y899163D01*
Y914398D01*
X1468117D02*
Y899163D01*
X1475734D01*
X1478273Y901702D01*
Y911858D01*
X1475734Y914398D01*
X1468117D01*
X748284Y231389D02*
Y216154D01*
X758441D01*
X763519Y231389D02*
Y216154D01*
X771137D01*
X773676Y218693D01*
Y228850D01*
X771137Y231389D01*
X763519D01*
X778754Y216154D02*
Y231389D01*
X786372D01*
X788911Y228850D01*
Y223771D01*
X786372Y221232D01*
X778754D01*
X783832D02*
X788911Y216154D01*
X318779Y1577337D02*
Y1562103D01*
X328936D01*
X344171Y1577337D02*
X334014D01*
Y1562103D01*
X344171D01*
X334014Y1569720D02*
X339092D01*
X349249Y1577337D02*
Y1562103D01*
X356867D01*
X359406Y1564642D01*
Y1574798D01*
X356867Y1577337D01*
X349249D01*
X364484Y1562103D02*
X372102D01*
X374641Y1564642D01*
X372102Y1567181D01*
X367023D01*
X364484Y1569720D01*
X367023Y1572259D01*
X374641D01*
X1551942Y1488412D02*
X1567177D01*
Y1480795D01*
X1564638Y1478255D01*
X1559560D01*
X1557021Y1480795D01*
Y1488412D01*
X1567177Y1473177D02*
X1554482D01*
X1551942Y1470638D01*
Y1465560D01*
X1554482Y1463020D01*
X1567177D01*
X1564638Y1447785D02*
X1567177Y1450324D01*
Y1455403D01*
X1564638Y1457942D01*
X1562099D01*
X1559560Y1455403D01*
Y1450324D01*
X1557021Y1447785D01*
X1554482D01*
X1551942Y1450324D01*
Y1455403D01*
X1554482Y1457942D01*
X1567177Y1442707D02*
X1551942D01*
X1559560D01*
Y1432550D01*
X1567177D01*
X1551942D01*
X1567177Y1412237D02*
X1551942D01*
Y1404619D01*
X1554482Y1402080D01*
X1557021D01*
X1559560Y1404619D01*
Y1412237D01*
Y1404619D01*
X1562099Y1402080D01*
X1564638D01*
X1567177Y1404619D01*
Y1412237D01*
Y1397002D02*
X1554482D01*
X1551942Y1394462D01*
Y1389384D01*
X1554482Y1386845D01*
X1567177D01*
Y1381767D02*
Y1371610D01*
Y1376688D01*
X1551942D01*
X1567177Y1366532D02*
Y1356375D01*
Y1361453D01*
X1551942D01*
X1567177Y1343679D02*
Y1348757D01*
X1564638Y1351296D01*
X1554482D01*
X1551942Y1348757D01*
Y1343679D01*
X1554482Y1341140D01*
X1564638D01*
X1567177Y1343679D01*
X1551942Y1336061D02*
X1567177D01*
X1551942Y1325905D01*
X1567177D01*
X1551942Y1320826D02*
Y1315748D01*
X1567177D01*
Y1320826D01*
X928624Y1069594D02*
Y1084829D01*
X936242D01*
X938781Y1082290D01*
Y1077212D01*
X936242Y1074672D01*
X928624D01*
X933702D02*
X938781Y1069594D01*
X954016Y1084829D02*
X943859D01*
Y1069594D01*
X954016D01*
X943859Y1077212D02*
X948937D01*
X959094Y1084829D02*
Y1069594D01*
X969251D01*
X974329D02*
Y1079751D01*
X979408Y1084829D01*
X984486Y1079751D01*
Y1069594D01*
Y1077212D01*
X974329D01*
X989564Y1084829D02*
Y1082290D01*
X994643Y1077212D01*
X999721Y1082290D01*
Y1084829D01*
X994643Y1077212D02*
Y1069594D01*
X828061Y647702D02*
Y662937D01*
X835678D01*
X838218Y660398D01*
Y655320D01*
X835678Y652781D01*
X828061D01*
X833139D02*
X838218Y647702D01*
X858531Y662937D02*
X868688D01*
X863609D01*
Y647702D01*
X873766D02*
Y662937D01*
X881384D01*
X883923Y660398D01*
Y655320D01*
X881384Y652781D01*
X873766D01*
X878845D02*
X883923Y647702D01*
X889001Y662937D02*
X894080D01*
X891540D01*
Y647702D01*
X889001D01*
X894080D01*
X901697D02*
Y662937D01*
X906776Y657859D01*
X911854Y662937D01*
Y647702D01*
X916932D02*
Y662937D01*
X924550D01*
X927089Y660398D01*
Y655320D01*
X924550Y652781D01*
X916932D01*
X939785Y662937D02*
X934706D01*
X932167Y660398D01*
Y650242D01*
X934706Y647702D01*
X939785D01*
X942324Y650242D01*
Y660398D01*
X939785Y662937D01*
X947402D02*
X957559D01*
X952481D01*
Y647702D01*
X1631439Y851658D02*
X1628900Y854197D01*
X1623821D01*
X1621282Y851658D01*
Y849119D01*
X1623821Y846580D01*
X1628900D01*
X1631439Y844040D01*
Y841501D01*
X1628900Y838962D01*
X1623821D01*
X1621282Y841501D01*
X1644135Y854197D02*
X1639056D01*
X1636517Y851658D01*
Y841501D01*
X1639056Y838962D01*
X1644135D01*
X1646674Y841501D01*
Y851658D01*
X1644135Y854197D01*
X1651752D02*
X1656830D01*
X1654291D01*
Y838962D01*
X1651752D01*
X1656830D01*
X1664448Y854197D02*
Y838962D01*
X1674605D01*
X204467Y1282696D02*
X201928Y1285235D01*
X196849D01*
X194310Y1282696D01*
Y1272539D01*
X196849Y1270000D01*
X201928D01*
X204467Y1272539D01*
X209545Y1285235D02*
X219702D01*
Y1282696D01*
X209545Y1272539D01*
Y1270000D01*
X641347Y1766566D02*
X638807Y1769105D01*
X633729D01*
X631190Y1766566D01*
Y1756409D01*
X633729Y1753870D01*
X638807D01*
X641347Y1756409D01*
X646425Y1753870D02*
X651503D01*
X648964D01*
Y1769105D01*
X646425Y1766566D01*
X123187Y170176D02*
X120647Y172715D01*
X115569D01*
X113030Y170176D01*
Y160019D01*
X115569Y157480D01*
X120647D01*
X123187Y160019D01*
X138422Y157480D02*
X128265D01*
X138422Y167637D01*
Y170176D01*
X135883Y172715D01*
X130804D01*
X128265Y170176D01*
X808987Y1328416D02*
X806448Y1330955D01*
X801369D01*
X798830Y1328416D01*
Y1318259D01*
X801369Y1315720D01*
X806448D01*
X808987Y1318259D01*
X821683Y1315720D02*
Y1330955D01*
X814065Y1323338D01*
X824222D01*
X194307Y1427476D02*
X191768Y1430015D01*
X186689D01*
X184150Y1427476D01*
Y1417319D01*
X186689Y1414780D01*
X191768D01*
X194307Y1417319D01*
X209542Y1430015D02*
X199385D01*
Y1422397D01*
X204463Y1424937D01*
X207003D01*
X209542Y1422397D01*
Y1417319D01*
X207003Y1414780D01*
X201924D01*
X199385Y1417319D01*
X1200287Y1327146D02*
X1197748Y1329685D01*
X1192669D01*
X1190130Y1327146D01*
Y1316989D01*
X1192669Y1314450D01*
X1197748D01*
X1200287Y1316989D01*
X1215522Y1329685D02*
X1210444Y1327146D01*
X1205365Y1322068D01*
Y1316989D01*
X1207905Y1314450D01*
X1212983D01*
X1215522Y1316989D01*
Y1319528D01*
X1212983Y1322068D01*
X1205365D01*
X173990Y1699509D02*
Y1684274D01*
X181607D01*
X184147Y1686813D01*
Y1696970D01*
X181607Y1699509D01*
X173990D01*
X189225Y1684274D02*
X194303D01*
X191764D01*
Y1699509D01*
X189225Y1696970D01*
X218440Y1699509D02*
Y1684274D01*
X226057D01*
X228597Y1686813D01*
Y1696970D01*
X226057Y1699509D01*
X218440D01*
X243832Y1684274D02*
X233675D01*
X243832Y1694431D01*
Y1696970D01*
X241293Y1699509D01*
X236214D01*
X233675Y1696970D01*
X262890Y1699509D02*
Y1684274D01*
X270508D01*
X273047Y1686813D01*
Y1696970D01*
X270508Y1699509D01*
X262890D01*
X278125Y1696970D02*
X280664Y1699509D01*
X285743D01*
X288282Y1696970D01*
Y1694431D01*
X285743Y1691891D01*
X283203D01*
X285743D01*
X288282Y1689352D01*
Y1686813D01*
X285743Y1684274D01*
X280664D01*
X278125Y1686813D01*
X307340Y1699509D02*
Y1684274D01*
X314958D01*
X317497Y1686813D01*
Y1696970D01*
X314958Y1699509D01*
X307340D01*
X330193Y1684274D02*
Y1699509D01*
X322575Y1691891D01*
X332732D01*
X351790Y1699509D02*
Y1684274D01*
X359408D01*
X361947Y1686813D01*
Y1696970D01*
X359408Y1699509D01*
X351790D01*
X377182D02*
X367025D01*
Y1691891D01*
X372103Y1694431D01*
X374643D01*
X377182Y1691891D01*
Y1686813D01*
X374643Y1684274D01*
X369564D01*
X367025Y1686813D01*
X396240Y1699509D02*
Y1684274D01*
X403857D01*
X406397Y1686813D01*
Y1696970D01*
X403857Y1699509D01*
X396240D01*
X421632D02*
X416553Y1696970D01*
X411475Y1691891D01*
Y1686813D01*
X414014Y1684274D01*
X419093D01*
X421632Y1686813D01*
Y1689352D01*
X419093Y1691891D01*
X411475D01*
X440690Y1699509D02*
Y1684274D01*
X448307D01*
X450847Y1686813D01*
Y1696970D01*
X448307Y1699509D01*
X440690D01*
X455925D02*
X466082D01*
Y1696970D01*
X455925Y1686813D01*
Y1684274D01*
X801370Y1229355D02*
Y1214120D01*
X808988D01*
X811527Y1216659D01*
Y1226816D01*
X808988Y1229355D01*
X801370D01*
X816605Y1216659D02*
X819144Y1214120D01*
X824223D01*
X826762Y1216659D01*
Y1226816D01*
X824223Y1229355D01*
X819144D01*
X816605Y1226816D01*
Y1224277D01*
X819144Y1221738D01*
X826762D01*
X795020Y1277225D02*
Y1261990D01*
X802637D01*
X805177Y1264529D01*
Y1274686D01*
X802637Y1277225D01*
X795020D01*
X810255Y1261990D02*
X815333D01*
X812794D01*
Y1277225D01*
X810255Y1274686D01*
X822951D02*
X825490Y1277225D01*
X830568D01*
X833108Y1274686D01*
Y1264529D01*
X830568Y1261990D01*
X825490D01*
X822951Y1264529D01*
Y1274686D01*
X1188720Y1224275D02*
Y1209040D01*
X1196338D01*
X1198877Y1211579D01*
Y1221736D01*
X1196338Y1224275D01*
X1188720D01*
X1203955Y1209040D02*
X1209033D01*
X1206494D01*
Y1224275D01*
X1203955Y1221736D01*
X1216651Y1209040D02*
X1221729D01*
X1219190D01*
Y1224275D01*
X1216651Y1221736D01*
X1186180Y1273805D02*
Y1258570D01*
X1193798D01*
X1196337Y1261109D01*
Y1271266D01*
X1193798Y1273805D01*
X1186180D01*
X1201415Y1258570D02*
X1206493D01*
X1203954D01*
Y1273805D01*
X1201415Y1271266D01*
X1224268Y1258570D02*
X1214111D01*
X1224268Y1268727D01*
Y1271266D01*
X1221729Y1273805D01*
X1216650D01*
X1214111Y1271266D01*
X175514Y341117D02*
Y325882D01*
X183132D01*
X185671Y328421D01*
Y338578D01*
X183132Y341117D01*
X175514D01*
X190749D02*
Y325882D01*
Y333499D01*
X200906D01*
Y341117D01*
Y325882D01*
X205984Y341117D02*
X216141D01*
X211063D01*
Y325882D01*
X1053338Y1519931D02*
Y1504696D01*
Y1509774D01*
X1063495Y1519931D01*
X1055877Y1512314D01*
X1063495Y1504696D01*
X1068573D02*
X1073651D01*
X1071112D01*
Y1519931D01*
X1068573Y1517392D01*
X492767Y355597D02*
X487688D01*
X485149Y353058D01*
Y342902D01*
X487688Y340363D01*
X492767D01*
X495306Y342902D01*
Y353058D01*
X492767Y355597D01*
X500384D02*
Y340363D01*
X510541D01*
X525776Y355597D02*
X515619D01*
Y340363D01*
X525776D01*
X515619Y347980D02*
X520698D01*
X530854Y355597D02*
Y340363D01*
X538472D01*
X541011Y342902D01*
Y353058D01*
X538472Y355597D01*
X530854D01*
X802637Y1766565D02*
X797559D01*
X795020Y1764026D01*
Y1753869D01*
X797559Y1751330D01*
X802637D01*
X805177Y1753869D01*
Y1764026D01*
X802637Y1766565D01*
X810255D02*
Y1753869D01*
X812794Y1751330D01*
X817873D01*
X820412Y1753869D01*
Y1766565D01*
X825490D02*
X835647D01*
X830568D01*
Y1751330D01*
X840725D02*
X845804D01*
X843264D01*
Y1766565D01*
X840725Y1764026D01*
X1158238Y1766565D02*
X1153159D01*
X1150620Y1764026D01*
Y1753869D01*
X1153159Y1751330D01*
X1158238D01*
X1160777Y1753869D01*
Y1764026D01*
X1158238Y1766565D01*
X1165855D02*
Y1753869D01*
X1168394Y1751330D01*
X1173473D01*
X1176012Y1753869D01*
Y1766565D01*
X1181090D02*
X1191247D01*
X1186169D01*
Y1751330D01*
X1206482D02*
X1196325D01*
X1206482Y1761487D01*
Y1764026D01*
X1203943Y1766565D01*
X1198864D01*
X1196325Y1764026D01*
X867813Y1322577D02*
Y1332734D01*
X865273Y1335273D01*
X860195D01*
X857656Y1332734D01*
Y1322577D01*
X860195Y1320038D01*
X865273D01*
X862734Y1325116D02*
X867813Y1320038D01*
X865273D02*
X867813Y1322577D01*
X872891Y1320038D02*
X877969D01*
X875430D01*
Y1335273D01*
X872891Y1332734D01*
X1269997Y1315719D02*
Y1325876D01*
X1267458Y1328415D01*
X1262379D01*
X1259840Y1325876D01*
Y1315719D01*
X1262379Y1313180D01*
X1267458D01*
X1264918Y1318258D02*
X1269997Y1313180D01*
X1267458D02*
X1269997Y1315719D01*
X1285232Y1313180D02*
X1275075D01*
X1285232Y1323337D01*
Y1325876D01*
X1282693Y1328415D01*
X1277614D01*
X1275075Y1325876D01*
X757936Y430022D02*
Y445257D01*
X765554D01*
X768093Y442718D01*
Y437640D01*
X765554Y435100D01*
X757936D01*
X763014D02*
X768093Y430022D01*
X773171D02*
X778249D01*
X775710D01*
Y445257D01*
X773171Y442718D01*
X641858Y1509014D02*
Y1524249D01*
X649475D01*
X652015Y1521710D01*
Y1516631D01*
X649475Y1514092D01*
X641858D01*
X646936D02*
X652015Y1509014D01*
X657093Y1521710D02*
X659632Y1524249D01*
X664711D01*
X667250Y1521710D01*
Y1519171D01*
X664711Y1516631D01*
X662171D01*
X664711D01*
X667250Y1514092D01*
Y1511553D01*
X664711Y1509014D01*
X659632D01*
X657093Y1511553D01*
X174244Y1787906D02*
Y1803141D01*
X181861D01*
X184401Y1800602D01*
Y1795524D01*
X181861Y1792984D01*
X174244D01*
X179322D02*
X184401Y1787906D01*
X197097D02*
Y1803141D01*
X189479Y1795524D01*
X199636D01*
X218694Y1787906D02*
Y1803141D01*
X226311D01*
X228851Y1800602D01*
Y1795524D01*
X226311Y1792984D01*
X218694D01*
X223772D02*
X228851Y1787906D01*
X244086Y1803141D02*
X233929D01*
Y1795524D01*
X239007Y1798063D01*
X241547D01*
X244086Y1795524D01*
Y1790445D01*
X241547Y1787906D01*
X236468D01*
X233929Y1790445D01*
X263144Y1787906D02*
Y1803141D01*
X270762D01*
X273301Y1800602D01*
Y1795524D01*
X270762Y1792984D01*
X263144D01*
X268222D02*
X273301Y1787906D01*
X288536Y1803141D02*
X283457Y1800602D01*
X278379Y1795524D01*
Y1790445D01*
X280918Y1787906D01*
X285997D01*
X288536Y1790445D01*
Y1792984D01*
X285997Y1795524D01*
X278379D01*
X307594Y1787906D02*
Y1803141D01*
X315212D01*
X317751Y1800602D01*
Y1795524D01*
X315212Y1792984D01*
X307594D01*
X312672D02*
X317751Y1787906D01*
X322829Y1803141D02*
X332986D01*
Y1800602D01*
X322829Y1790445D01*
Y1787906D01*
X352044D02*
Y1803141D01*
X359661D01*
X362201Y1800602D01*
Y1795524D01*
X359661Y1792984D01*
X352044D01*
X357122D02*
X362201Y1787906D01*
X367279Y1800602D02*
X369818Y1803141D01*
X374897D01*
X377436Y1800602D01*
Y1798063D01*
X374897Y1795524D01*
X377436Y1792984D01*
Y1790445D01*
X374897Y1787906D01*
X369818D01*
X367279Y1790445D01*
Y1792984D01*
X369818Y1795524D01*
X367279Y1798063D01*
Y1800602D01*
X369818Y1795524D02*
X374897D01*
X392430Y1786890D02*
Y1802125D01*
X400047D01*
X402587Y1799586D01*
Y1794507D01*
X400047Y1791968D01*
X392430D01*
X397508D02*
X402587Y1786890D01*
X407665Y1789429D02*
X410204Y1786890D01*
X415283D01*
X417822Y1789429D01*
Y1799586D01*
X415283Y1802125D01*
X410204D01*
X407665Y1799586D01*
Y1797047D01*
X410204Y1794507D01*
X417822D01*
X433070Y1788160D02*
Y1803395D01*
X440687D01*
X443227Y1800856D01*
Y1795777D01*
X440687Y1793238D01*
X433070D01*
X438148D02*
X443227Y1788160D01*
X448305D02*
X453383D01*
X450844D01*
Y1803395D01*
X448305Y1800856D01*
X461001D02*
X463540Y1803395D01*
X468619D01*
X471158Y1800856D01*
Y1790699D01*
X468619Y1788160D01*
X463540D01*
X461001Y1790699D01*
Y1800856D01*
X483870Y1788160D02*
Y1803395D01*
X491488D01*
X494027Y1800856D01*
Y1795777D01*
X491488Y1793238D01*
X483870D01*
X488948D02*
X494027Y1788160D01*
X499105D02*
X504183D01*
X501644D01*
Y1803395D01*
X499105Y1800856D01*
X511801Y1788160D02*
X516879D01*
X514340D01*
Y1803395D01*
X511801Y1800856D01*
X737870Y1320800D02*
Y1336035D01*
X745488D01*
X748027Y1333496D01*
Y1328418D01*
X745488Y1325878D01*
X737870D01*
X742948D02*
X748027Y1320800D01*
X753105D02*
X758183D01*
X755644D01*
Y1336035D01*
X753105Y1333496D01*
X765801D02*
X768340Y1336035D01*
X773419D01*
X775958Y1333496D01*
Y1330957D01*
X773419Y1328418D01*
X770879D01*
X773419D01*
X775958Y1325878D01*
Y1323339D01*
X773419Y1320800D01*
X768340D01*
X765801Y1323339D01*
X106680Y231140D02*
Y246375D01*
X114298D01*
X116837Y243836D01*
Y238757D01*
X114298Y236218D01*
X106680D01*
X111758D02*
X116837Y231140D01*
X121915D02*
X126993D01*
X124454D01*
Y246375D01*
X121915Y243836D01*
X142228Y231140D02*
Y246375D01*
X134611Y238757D01*
X144768D01*
X1129030Y1315720D02*
Y1330955D01*
X1136647D01*
X1139187Y1328416D01*
Y1323338D01*
X1136647Y1320798D01*
X1129030D01*
X1134108D02*
X1139187Y1315720D01*
X1144265D02*
X1149343D01*
X1146804D01*
Y1330955D01*
X1144265Y1328416D01*
X1167118Y1330955D02*
X1156961D01*
Y1323338D01*
X1162039Y1325877D01*
X1164578D01*
X1167118Y1323338D01*
Y1318259D01*
X1164578Y1315720D01*
X1159500D01*
X1156961Y1318259D01*
X854964Y1240282D02*
Y1255517D01*
X862581D01*
X865121Y1252978D01*
Y1247899D01*
X862581Y1245360D01*
X854964D01*
X860042D02*
X865121Y1240282D01*
X870199D02*
X875277D01*
X872738D01*
Y1255517D01*
X870199Y1252978D01*
X893052Y1255517D02*
X887973Y1252978D01*
X882895Y1247899D01*
Y1242821D01*
X885434Y1240282D01*
X890512D01*
X893052Y1242821D01*
Y1245360D01*
X890512Y1247899D01*
X882895D01*
X1252220Y1235710D02*
Y1250945D01*
X1259837D01*
X1262377Y1248406D01*
Y1243327D01*
X1259837Y1240788D01*
X1252220D01*
X1257298D02*
X1262377Y1235710D01*
X1267455D02*
X1272533D01*
X1269994D01*
Y1250945D01*
X1267455Y1248406D01*
X1280151Y1250945D02*
X1290308D01*
Y1248406D01*
X1280151Y1238249D01*
Y1235710D01*
X1799333Y866390D02*
X1796794Y868929D01*
X1791715D01*
X1789176Y866390D01*
Y863851D01*
X1791715Y861311D01*
X1796794D01*
X1799333Y858772D01*
Y856233D01*
X1796794Y853694D01*
X1791715D01*
X1789176Y856233D01*
X1812029Y868929D02*
X1806950D01*
X1804411Y866390D01*
Y856233D01*
X1806950Y853694D01*
X1812029D01*
X1814568Y856233D01*
Y866390D01*
X1812029Y868929D01*
X1819646D02*
X1824724D01*
X1822185D01*
Y853694D01*
X1819646D01*
X1824724D01*
X1832342Y868929D02*
Y853694D01*
X1842499D01*
X1756661Y1815334D02*
X1754122Y1817873D01*
X1749043D01*
X1746504Y1815334D01*
Y1812795D01*
X1749043Y1810255D01*
X1754122D01*
X1756661Y1807716D01*
Y1805177D01*
X1754122Y1802638D01*
X1749043D01*
X1746504Y1805177D01*
X1761739Y1817873D02*
Y1802638D01*
X1766817Y1807716D01*
X1771896Y1802638D01*
Y1817873D01*
X1776974Y1802638D02*
X1782052D01*
X1779513D01*
Y1817873D01*
X1776974Y1815334D01*
X1756661Y1713734D02*
X1754122Y1716273D01*
X1749043D01*
X1746504Y1713734D01*
Y1711195D01*
X1749043Y1708656D01*
X1754122D01*
X1756661Y1706116D01*
Y1703577D01*
X1754122Y1701038D01*
X1749043D01*
X1746504Y1703577D01*
X1761739Y1716273D02*
Y1701038D01*
X1766817Y1706116D01*
X1771896Y1701038D01*
Y1716273D01*
X1787131Y1701038D02*
X1776974D01*
X1787131Y1711195D01*
Y1713734D01*
X1784592Y1716273D01*
X1779513D01*
X1776974Y1713734D01*
X1756661Y1612134D02*
X1754122Y1614673D01*
X1749043D01*
X1746504Y1612134D01*
Y1609595D01*
X1749043Y1607056D01*
X1754122D01*
X1756661Y1604516D01*
Y1601977D01*
X1754122Y1599438D01*
X1749043D01*
X1746504Y1601977D01*
X1761739Y1614673D02*
Y1599438D01*
X1766817Y1604516D01*
X1771896Y1599438D01*
Y1614673D01*
X1776974Y1612134D02*
X1779513Y1614673D01*
X1784592D01*
X1787131Y1612134D01*
Y1609595D01*
X1784592Y1607056D01*
X1782052D01*
X1784592D01*
X1787131Y1604516D01*
Y1601977D01*
X1784592Y1599438D01*
X1779513D01*
X1776974Y1601977D01*
X1756661Y1510534D02*
X1754122Y1513073D01*
X1749043D01*
X1746504Y1510534D01*
Y1507995D01*
X1749043Y1505455D01*
X1754122D01*
X1756661Y1502916D01*
Y1500377D01*
X1754122Y1497838D01*
X1749043D01*
X1746504Y1500377D01*
X1761739Y1513073D02*
Y1497838D01*
X1766817Y1502916D01*
X1771896Y1497838D01*
Y1513073D01*
X1784592Y1497838D02*
Y1513073D01*
X1776974Y1505455D01*
X1787131D01*
X1756661Y1408934D02*
X1754122Y1411473D01*
X1749043D01*
X1746504Y1408934D01*
Y1406395D01*
X1749043Y1403855D01*
X1754122D01*
X1756661Y1401316D01*
Y1398777D01*
X1754122Y1396238D01*
X1749043D01*
X1746504Y1398777D01*
X1761739Y1411473D02*
Y1396238D01*
X1766817Y1401316D01*
X1771896Y1396238D01*
Y1411473D01*
X1787131D02*
X1776974D01*
Y1403855D01*
X1782052Y1406395D01*
X1784592D01*
X1787131Y1403855D01*
Y1398777D01*
X1784592Y1396238D01*
X1779513D01*
X1776974Y1398777D01*
X1756661Y1306064D02*
X1754122Y1308603D01*
X1749043D01*
X1746504Y1306064D01*
Y1303525D01*
X1749043Y1300986D01*
X1754122D01*
X1756661Y1298446D01*
Y1295907D01*
X1754122Y1293368D01*
X1749043D01*
X1746504Y1295907D01*
X1761739Y1308603D02*
Y1293368D01*
X1766817Y1298446D01*
X1771896Y1293368D01*
Y1308603D01*
X1787131D02*
X1782052Y1306064D01*
X1776974Y1300986D01*
Y1295907D01*
X1779513Y1293368D01*
X1784592D01*
X1787131Y1295907D01*
Y1298446D01*
X1784592Y1300986D01*
X1776974D01*
X1756661Y1204464D02*
X1754122Y1207003D01*
X1749043D01*
X1746504Y1204464D01*
Y1201925D01*
X1749043Y1199386D01*
X1754122D01*
X1756661Y1196846D01*
Y1194307D01*
X1754122Y1191768D01*
X1749043D01*
X1746504Y1194307D01*
X1761739Y1207003D02*
Y1191768D01*
X1766817Y1196846D01*
X1771896Y1191768D01*
Y1207003D01*
X1776974D02*
X1787131D01*
Y1204464D01*
X1776974Y1194307D01*
Y1191768D01*
X1756661Y1102864D02*
X1754122Y1105403D01*
X1749043D01*
X1746504Y1102864D01*
Y1100325D01*
X1749043Y1097785D01*
X1754122D01*
X1756661Y1095246D01*
Y1092707D01*
X1754122Y1090168D01*
X1749043D01*
X1746504Y1092707D01*
X1761739Y1105403D02*
Y1090168D01*
X1766817Y1095246D01*
X1771896Y1090168D01*
Y1105403D01*
X1776974Y1102864D02*
X1779513Y1105403D01*
X1784592D01*
X1787131Y1102864D01*
Y1100325D01*
X1784592Y1097785D01*
X1787131Y1095246D01*
Y1092707D01*
X1784592Y1090168D01*
X1779513D01*
X1776974Y1092707D01*
Y1095246D01*
X1779513Y1097785D01*
X1776974Y1100325D01*
Y1102864D01*
X1779513Y1097785D02*
X1784592D01*
X1653794Y1780032D02*
Y1795267D01*
X1661411D01*
X1663951Y1792728D01*
Y1787650D01*
X1661411Y1785110D01*
X1653794D01*
X1658872D02*
X1663951Y1780032D01*
X1669029D02*
X1674107D01*
X1671568D01*
Y1795267D01*
X1669029Y1792728D01*
X1681725D02*
X1684264Y1795267D01*
X1689342D01*
X1691882Y1792728D01*
Y1790189D01*
X1689342Y1787650D01*
X1691882Y1785110D01*
Y1782571D01*
X1689342Y1780032D01*
X1684264D01*
X1681725Y1782571D01*
Y1785110D01*
X1684264Y1787650D01*
X1681725Y1790189D01*
Y1792728D01*
X1684264Y1787650D02*
X1689342D01*
X1652524Y1677162D02*
Y1692397D01*
X1660141D01*
X1662681Y1689858D01*
Y1684780D01*
X1660141Y1682240D01*
X1652524D01*
X1657602D02*
X1662681Y1677162D01*
X1667759D02*
X1672837D01*
X1670298D01*
Y1692397D01*
X1667759Y1689858D01*
X1680455Y1679701D02*
X1682994Y1677162D01*
X1688073D01*
X1690612Y1679701D01*
Y1689858D01*
X1688073Y1692397D01*
X1682994D01*
X1680455Y1689858D01*
Y1687319D01*
X1682994Y1684780D01*
X1690612D01*
X1652524Y1575562D02*
Y1590797D01*
X1660141D01*
X1662681Y1588258D01*
Y1583179D01*
X1660141Y1580640D01*
X1652524D01*
X1657602D02*
X1662681Y1575562D01*
X1677916D02*
X1667759D01*
X1677916Y1585719D01*
Y1588258D01*
X1675377Y1590797D01*
X1670298D01*
X1667759Y1588258D01*
X1682994D02*
X1685533Y1590797D01*
X1690612D01*
X1693151Y1588258D01*
Y1578101D01*
X1690612Y1575562D01*
X1685533D01*
X1682994Y1578101D01*
Y1588258D01*
X1652524Y1473962D02*
Y1489197D01*
X1660141D01*
X1662681Y1486658D01*
Y1481579D01*
X1660141Y1479040D01*
X1652524D01*
X1657602D02*
X1662681Y1473962D01*
X1677916D02*
X1667759D01*
X1677916Y1484119D01*
Y1486658D01*
X1675377Y1489197D01*
X1670298D01*
X1667759Y1486658D01*
X1682994Y1473962D02*
X1688073D01*
X1685533D01*
Y1489197D01*
X1682994Y1486658D01*
X1652524Y1063752D02*
Y1078987D01*
X1660141D01*
X1662681Y1076448D01*
Y1071369D01*
X1660141Y1068830D01*
X1652524D01*
X1657602D02*
X1662681Y1063752D01*
X1677916D02*
X1667759D01*
X1677916Y1073909D01*
Y1076448D01*
X1675377Y1078987D01*
X1670298D01*
X1667759Y1076448D01*
X1693151Y1078987D02*
X1682994D01*
Y1071369D01*
X1688073Y1073909D01*
X1690612D01*
X1693151Y1071369D01*
Y1066291D01*
X1690612Y1063752D01*
X1685533D01*
X1682994Y1066291D01*
X1652524Y1166622D02*
Y1181857D01*
X1660141D01*
X1662681Y1179318D01*
Y1174240D01*
X1660141Y1171700D01*
X1652524D01*
X1657602D02*
X1662681Y1166622D01*
X1677916D02*
X1667759D01*
X1677916Y1176779D01*
Y1179318D01*
X1675377Y1181857D01*
X1670298D01*
X1667759Y1179318D01*
X1690612Y1166622D02*
Y1181857D01*
X1682994Y1174240D01*
X1693151D01*
X1652524Y1269492D02*
Y1284727D01*
X1660141D01*
X1662681Y1282188D01*
Y1277110D01*
X1660141Y1274570D01*
X1652524D01*
X1657602D02*
X1662681Y1269492D01*
X1677916D02*
X1667759D01*
X1677916Y1279649D01*
Y1282188D01*
X1675377Y1284727D01*
X1670298D01*
X1667759Y1282188D01*
X1682994D02*
X1685533Y1284727D01*
X1690612D01*
X1693151Y1282188D01*
Y1279649D01*
X1690612Y1277110D01*
X1688073D01*
X1690612D01*
X1693151Y1274570D01*
Y1272031D01*
X1690612Y1269492D01*
X1685533D01*
X1682994Y1272031D01*
X1652524Y1373632D02*
Y1388867D01*
X1660141D01*
X1662681Y1386328D01*
Y1381250D01*
X1660141Y1378710D01*
X1652524D01*
X1657602D02*
X1662681Y1373632D01*
X1677916D02*
X1667759D01*
X1677916Y1383789D01*
Y1386328D01*
X1675377Y1388867D01*
X1670298D01*
X1667759Y1386328D01*
X1693151Y1373632D02*
X1682994D01*
X1693151Y1383789D01*
Y1386328D01*
X1690612Y1388867D01*
X1685533D01*
X1682994Y1386328D01*
X763524Y338582D02*
Y353817D01*
X771142D01*
X773681Y351278D01*
Y346199D01*
X771142Y343660D01*
X763524D01*
X768602D02*
X773681Y338582D01*
X788916D02*
X778759D01*
X788916Y348739D01*
Y351278D01*
X786377Y353817D01*
X781298D01*
X778759Y351278D01*
X485140Y1699509D02*
Y1684274D01*
X492757D01*
X495297Y1686813D01*
Y1696970D01*
X492757Y1699509D01*
X485140D01*
X500375Y1696970D02*
X502914Y1699509D01*
X507993D01*
X510532Y1696970D01*
Y1694431D01*
X507993Y1691891D01*
X510532Y1689352D01*
Y1686813D01*
X507993Y1684274D01*
X502914D01*
X500375Y1686813D01*
Y1689352D01*
X502914Y1691891D01*
X500375Y1694431D01*
Y1696970D01*
X502914Y1691891D02*
X507993D01*
D12*
X651020Y716060D02*
G03*
X651020Y716060I-1000J0D01*
G01*
X1254880Y1269780D02*
G03*
X1254880Y1269780I-1000J0D01*
G01*
X858690Y1272320D02*
G03*
X858690Y1272320I-1000J0D01*
G01*
D13*
X1807890Y1559040D02*
G03*
X1807890Y1559040I-17550J0D01*
G01*
Y1457440D02*
G03*
X1807890Y1457440I-17550J0D01*
G01*
Y1355840D02*
G03*
X1807890Y1355840I-17550J0D01*
G01*
Y1151370D02*
G03*
X1807890Y1151370I-17550J0D01*
G01*
Y1049770D02*
G03*
X1807890Y1049770I-17550J0D01*
G01*
Y1660640D02*
G03*
X1807890Y1660640I-17550J0D01*
G01*
Y1762240D02*
G03*
X1807890Y1762240I-17550J0D01*
G01*
Y1252970D02*
G03*
X1807890Y1252970I-17550J0D01*
G01*
X1132840Y1632700D02*
X1234440D01*
X1132840D02*
Y1704700D01*
Y1622700D02*
Y1632700D01*
Y1622700D02*
X1234440D01*
Y1632700D01*
Y1704700D01*
X1132840D02*
X1234440D01*
X778510Y1631430D02*
X880110D01*
X778510D02*
Y1703430D01*
Y1621430D02*
Y1631430D01*
Y1621430D02*
X880110D01*
Y1631430D01*
Y1703430D01*
X778510D02*
X880110D01*
X249350Y1364410D02*
Y1402510D01*
Y1297510D02*
Y1335610D01*
X144350Y1364410D02*
Y1381510D01*
Y1318510D02*
Y1335610D01*
Y1318510D02*
X165350Y1297510D01*
X144350Y1381510D02*
X165350Y1402510D01*
Y1297510D02*
X249350D01*
X165350Y1402510D02*
X249350D01*
X653520Y740560D02*
X660520D01*
X675520D02*
X682520D01*
Y732560D02*
Y740560D01*
X653520Y732560D02*
Y740560D01*
X1257380Y1294280D02*
X1264380D01*
X1279380D02*
X1286380D01*
Y1286280D02*
Y1294280D01*
X1257380Y1286280D02*
Y1294280D01*
X1198380Y1252600D02*
X1212080D01*
X1198380Y1236600D02*
X1212080D01*
X1198380Y1187070D02*
X1212080D01*
X1198380Y1203070D02*
X1212080D01*
X807220Y1192150D02*
X820920D01*
X807220Y1208150D02*
X820920D01*
X805950Y1255140D02*
X819650D01*
X805950Y1239140D02*
X819650D01*
X751810Y1551690D02*
X906810D01*
X751810Y1361690D02*
Y1551690D01*
Y1361690D02*
X906810D01*
Y1551690D01*
X1760390Y1547540D02*
Y1570540D01*
X1767340Y1529090D02*
X1813340D01*
X1820340Y1547540D02*
Y1570540D01*
X1768340Y1588990D02*
X1813340D01*
X1760390Y1445940D02*
Y1468940D01*
X1767340Y1427490D02*
X1813340D01*
X1820340Y1445940D02*
Y1468940D01*
X1768340Y1487390D02*
X1813340D01*
X1760390Y1344340D02*
Y1367340D01*
X1767340Y1325890D02*
X1813340D01*
X1820340Y1344340D02*
Y1367340D01*
X1768340Y1385790D02*
X1813340D01*
X1760390Y1139870D02*
Y1162870D01*
X1767340Y1121420D02*
X1813340D01*
X1820340Y1139870D02*
Y1162870D01*
X1768340Y1181320D02*
X1813340D01*
X1760390Y1038270D02*
Y1061270D01*
X1767340Y1019820D02*
X1813340D01*
X1820340Y1038270D02*
Y1061270D01*
X1768340Y1079720D02*
X1813340D01*
X98030Y684770D02*
Y699770D01*
Y684770D02*
X483630D01*
Y714770D01*
X448030D02*
X483630D01*
X98030D02*
X447930D01*
X98030Y699870D02*
Y714770D01*
Y699770D02*
Y699870D01*
X483630Y768350D02*
Y783350D01*
X98030D02*
X483630D01*
X98030Y753350D02*
Y783350D01*
Y753350D02*
X133630D01*
X133730D02*
X483630D01*
Y768250D01*
Y768350D01*
X98030Y1003540D02*
Y1018540D01*
Y1003540D02*
X483630D01*
Y1033540D01*
X448030D02*
X483630D01*
X98030D02*
X447930D01*
X98030Y1018640D02*
Y1033540D01*
Y1018540D02*
Y1018640D01*
X483630Y1087120D02*
Y1102120D01*
X98030D02*
X483630D01*
X98030Y1072120D02*
Y1102120D01*
Y1072120D02*
X133630D01*
X133730D02*
X483630D01*
Y1087020D01*
Y1087120D01*
X861190Y1296820D02*
X868190D01*
X883190D02*
X890190D01*
Y1288820D02*
Y1296820D01*
X861190Y1288820D02*
Y1296820D01*
X1304870Y1439350D02*
Y1494350D01*
X1059870Y1439350D02*
X1304870D01*
X1059870D02*
Y1494350D01*
X1304870D01*
X1789430Y736640D02*
Y843240D01*
X1814830D01*
Y736640D02*
Y843240D01*
X1789430Y736640D02*
X1814830D01*
X173680Y162530D02*
X293680D01*
Y317530D01*
X173680D02*
X293680D01*
X173680Y162530D02*
Y317530D01*
X457580Y1646830D02*
Y1660530D01*
X441580Y1646830D02*
Y1660530D01*
X190880Y1646830D02*
Y1660530D01*
X174880Y1646830D02*
Y1660530D01*
X235330Y1646830D02*
Y1660530D01*
X219330Y1646830D02*
Y1660530D01*
X279780Y1646830D02*
Y1660530D01*
X263780Y1646830D02*
Y1660530D01*
X324230Y1646830D02*
Y1660530D01*
X308230Y1646830D02*
Y1660530D01*
X368680Y1646830D02*
Y1660530D01*
X352680Y1646830D02*
Y1660530D01*
X413130Y1646830D02*
Y1660530D01*
X397130Y1646830D02*
Y1660530D01*
X502030Y1646830D02*
Y1660530D01*
X486030Y1646830D02*
Y1660530D01*
X1760390Y1649140D02*
Y1672140D01*
X1767340Y1630690D02*
X1813340D01*
X1820340Y1649140D02*
Y1672140D01*
X1768340Y1690590D02*
X1813340D01*
X1760390Y1750740D02*
Y1773740D01*
X1767340Y1732290D02*
X1813340D01*
X1820340Y1750740D02*
Y1773740D01*
X1768340Y1792190D02*
X1813340D01*
X1760390Y1241470D02*
Y1264470D01*
X1767340Y1223020D02*
X1813340D01*
X1820340Y1241470D02*
Y1264470D01*
X1768340Y1282920D02*
X1813340D01*
X457240Y396240D02*
X563840D01*
Y370840D02*
Y396240D01*
X457240Y370840D02*
X563840D01*
X457240D02*
Y396240D01*
D14*
X807887Y410206D02*
G03*
X794876Y421319I-14014J-3235D01*
G01*
X761833Y392434D02*
G03*
X774844Y381321I14014J3235D01*
G01*
X774845Y421319D02*
G03*
X761833Y410206I1003J-14349D01*
G01*
X794875Y381321D02*
G03*
X807887Y392434I-1003J14349D01*
G01*
X774860Y421320D02*
X794860D01*
X774860Y381320D02*
X794860D01*
D15*
X503428Y1734566D02*
Y1778762D01*
X484378Y1734566D02*
X503428D01*
X484378D02*
Y1778762D01*
X503428D01*
X414528Y1734566D02*
Y1778762D01*
X395478Y1734566D02*
X414528D01*
X395478D02*
Y1778762D01*
X414528D01*
X458978Y1734566D02*
Y1778762D01*
X439928Y1734566D02*
X458978D01*
X439928D02*
Y1778762D01*
X458978D01*
X102616Y207772D02*
X146812D01*
X102616D02*
Y226822D01*
X146812D01*
Y207772D02*
Y226822D01*
X646938Y677418D02*
X691134D01*
Y658368D02*
Y677418D01*
X646938Y658368D02*
X691134D01*
X646938D02*
Y677418D01*
X1248156Y1209548D02*
X1292352D01*
X1248156D02*
Y1228598D01*
X1292352D01*
Y1209548D02*
Y1228598D01*
X1141222Y1264998D02*
Y1309194D01*
X1160272D01*
Y1264998D02*
Y1309194D01*
X1141222Y1264998D02*
X1160272D01*
X748792Y1267968D02*
Y1312164D01*
X767842D01*
Y1267968D02*
Y1312164D01*
X748792Y1267968D02*
X767842D01*
X853948Y1231138D02*
X898144D01*
Y1212088D02*
Y1231138D01*
X853948Y1212088D02*
X898144D01*
X853948D02*
Y1231138D01*
X281178Y1734566D02*
Y1778762D01*
X262128Y1734566D02*
X281178D01*
X262128D02*
Y1778762D01*
X281178D01*
X325628Y1734566D02*
Y1778762D01*
X306578Y1734566D02*
X325628D01*
X306578D02*
Y1778762D01*
X325628D01*
X370078Y1734566D02*
Y1778762D01*
X351028Y1734566D02*
X370078D01*
X351028D02*
Y1778762D01*
X370078D01*
X236728Y1734566D02*
Y1778762D01*
X217678Y1734566D02*
X236728D01*
X217678D02*
Y1778762D01*
X236728D01*
X192278Y1734566D02*
Y1778762D01*
X173228Y1734566D02*
X192278D01*
X173228D02*
Y1778762D01*
X192278D01*
X1651508Y1668018D02*
X1695704D01*
Y1648968D02*
Y1668018D01*
X1651508Y1648968D02*
X1695704D01*
X1651508D02*
Y1668018D01*
Y1566418D02*
X1695704D01*
Y1547368D02*
Y1566418D01*
X1651508Y1547368D02*
X1695704D01*
X1651508D02*
Y1566418D01*
Y1464818D02*
X1695704D01*
Y1445768D02*
Y1464818D01*
X1651508Y1445768D02*
X1695704D01*
X1651508D02*
Y1464818D01*
Y1054608D02*
X1695704D01*
Y1035558D02*
Y1054608D01*
X1651508Y1035558D02*
X1695704D01*
X1651508D02*
Y1054608D01*
Y1157478D02*
X1695704D01*
Y1138428D02*
Y1157478D01*
X1651508Y1138428D02*
X1695704D01*
X1651508D02*
Y1157478D01*
Y1260348D02*
X1695704D01*
Y1241298D02*
Y1260348D01*
X1651508Y1241298D02*
X1695704D01*
X1651508D02*
Y1260348D01*
Y1364488D02*
X1695704D01*
Y1345438D02*
Y1364488D01*
X1651508Y1345438D02*
X1695704D01*
X1651508D02*
Y1364488D01*
X762508Y329438D02*
X806704D01*
Y310388D02*
Y329438D01*
X762508Y310388D02*
X806704D01*
X762508D02*
Y329438D01*
X1652778Y1770888D02*
X1696974D01*
Y1751838D02*
Y1770888D01*
X1652778Y1751838D02*
X1696974D01*
X1652778D02*
Y1770888D01*
D16*
X271780Y135030D02*
Y162560D01*
X246380Y135030D02*
Y162560D01*
X220980Y135030D02*
Y162560D01*
X195580Y135030D02*
Y162560D01*
M02*
