M48
;Layer_Color=9474304
;FILE_FORMAT=4:4
METRIC,LZ
;TYPE=PLATED
T1F00S00C0.7112
T2F00S00C0.7620
T3F00S00C0.8000
T4F00S00C0.8890
T5F00S00C0.9144
T6F00S00C0.9900
T7F00S00C1.0000
T8F00S00C1.0200
T9F00S00C1.0700
T10F00S00C1.1000
T11F00S00C1.1176
T12F00S00C1.2000
T13F00S00C1.3000
T14F00S00C1.3208
T15F00S00C3.3020
%
T01
X0120777Y0107061
X00889Y0105537
T02
X0005334Y0005334
X0195199Y0006096
X0195453Y0187071
X0005969
T03
X0076486Y0040132
X0080486
T04
X0019558Y0012253
X0022098
X0024638
X0027178
T05
X0062865Y0085598
X0069469
T06
X0175784Y0102727
Y0107227
Y0112887
Y0117387
Y0123047
Y0127547
Y0133334
X0182284
Y0127547
Y0123047
Y0117387
Y0112887
Y0107227
Y0102727
Y0137834
Y0143494
Y0147994
Y0153654
Y0158154
Y0163814
Y0168314
X0175784
Y0163814
Y0158154
Y0153654
Y0147994
Y0143494
Y0137834
Y0173974
Y0178474
X0182284
Y0173974
T07
X0108077Y0148085
X0115697
X0125857
X0128397
T08
X0011303Y0069977
X0013843
Y0076835
X0011303
X0016383
X0018923
X0021463
X0024003
X0026543
X0029083
X0031623
X0034163
X0036703
X0039243
X0041783
X0044323
X0046863
Y0069977
X0044323
X0041783
X0039243
X0036703
X0034163
X0031623
X0029083
X0026543
X0024003
X0021463
X0018923
X0016383
Y0101854
X0018923
X0021463
X0024003
X0026543
X0029083
X0031623
X0034163
X0036703
X0039243
X0041783
X0044323
X0046863
Y0108712
X0044323
X0041783
X0039243
X0036703
X0034163
X0031623
X0029083
X0026543
X0024003
X0021463
X0018923
X0016383
X0013843
X0011303
Y0101854
X0013843
T09
X0054864Y0038354
X0077089Y0017526
X0079629
X0052324Y0038354
X0049784
X0047244
X0023241Y0040513
X0020701
X0065278Y0057658
X0067818
X0088927Y0059717
X0091467
X0164492Y0078078
Y0080618
X0180213Y0080264
Y0082804
Y0077724
Y0075184
X0097663Y010287
X0095123
T10
X0080391Y0166243
X0085471
X0115824Y016637
X0120904
T11
X0114173Y0069596
Y0072136
Y0074676
Y0077216
Y0079756
Y0082296
Y0084836
Y0087376
X0130048
Y0084836
Y0082296
Y0079756
Y0077216
Y0074676
Y0072136
Y0069596
X0145288Y0069469
Y0072009
Y0074549
Y0077089
Y0079629
Y0082169
Y0084709
Y0087249
X0151257Y0131191
X0042672Y0152019
X0040132
X0037592
X0035052
X0032512
X0029972
X0027432
X0024892
X0151257Y0148971
Y0146431
Y0143891
Y0141351
Y0138811
Y0136271
Y0133731
T12
X006604Y0157734
Y0172466
T13
X0076931Y0139569
X0082931Y0137569
X0088931Y0139569
Y0151769
X0076931
T14
X0086995Y0071501
X0092075
X0089535Y0081661
T15
X0005334Y0005334
X0195199Y0006096
X0195453Y0187071
X0005969
M30
