G04*
G04 #@! TF.GenerationSoftware,Altium Limited,Altium Designer,23.1.1 (15)*
G04*
G04 Layer_Color=16711935*
%FSLAX44Y44*%
%MOMM*%
G71*
G04*
G04 #@! TF.SameCoordinates,AA1C95EE-6770-4743-BBAD-D3AA2F0EE2A5*
G04*
G04*
G04 #@! TF.FilePolarity,Positive*
G04*
G01*
G75*
%ADD10C,0.2000*%
%ADD13C,0.1270*%
G36*
X660908Y721081D02*
X656314D01*
Y726948D01*
X660908D01*
Y721081D01*
D02*
G37*
G36*
X679704Y721100D02*
X675135D01*
Y726948D01*
X679704D01*
Y721100D01*
D02*
G37*
G36*
X670306Y741173D02*
X665733D01*
Y747014D01*
X670306D01*
Y741173D01*
D02*
G37*
G36*
X868578Y1277342D02*
X863984D01*
Y1283208D01*
X868578D01*
Y1277342D01*
D02*
G37*
G36*
X887374Y1277360D02*
X882805D01*
Y1283208D01*
X887374D01*
Y1277360D01*
D02*
G37*
G36*
X877976Y1297433D02*
X873403D01*
Y1303274D01*
X877976D01*
Y1297433D01*
D02*
G37*
G36*
X1264768Y1274801D02*
X1260174D01*
Y1280668D01*
X1264768D01*
Y1274801D01*
D02*
G37*
G36*
X1283564Y1274820D02*
X1278995D01*
Y1280668D01*
X1283564D01*
Y1274820D01*
D02*
G37*
G36*
X1274166Y1294893D02*
X1269594D01*
Y1300734D01*
X1274166D01*
Y1294893D01*
D02*
G37*
D10*
X1159240Y1651000D02*
G03*
X1159240Y1651000I-1000J0D01*
G01*
X804910Y1649730D02*
G03*
X804910Y1649730I-1000J0D01*
G01*
X115150Y1350010D02*
G03*
X115150Y1350010I-1000J0D01*
G01*
X1233230Y1244600D02*
G03*
X1233230Y1244600I-1000J0D01*
G01*
X1179230Y1195070D02*
G03*
X1179230Y1195070I-1000J0D01*
G01*
X788070Y1200150D02*
G03*
X788070Y1200150I-1000J0D01*
G01*
X840800Y1247140D02*
G03*
X840800Y1247140I-1000J0D01*
G01*
X1069070Y1479550D02*
G03*
X1069070Y1479550I-1000J0D01*
G01*
X1803630Y730340D02*
G03*
X1803630Y730340I-1000J0D01*
G01*
X450580Y1626680D02*
G03*
X450580Y1626680I-1000J0D01*
G01*
X183880D02*
G03*
X183880Y1626680I-1000J0D01*
G01*
X228330D02*
G03*
X228330Y1626680I-1000J0D01*
G01*
X272780D02*
G03*
X272780Y1626680I-1000J0D01*
G01*
X317230D02*
G03*
X317230Y1626680I-1000J0D01*
G01*
X361680D02*
G03*
X361680Y1626680I-1000J0D01*
G01*
X406130D02*
G03*
X406130Y1626680I-1000J0D01*
G01*
X495030D02*
G03*
X495030Y1626680I-1000J0D01*
G01*
X451940Y383040D02*
G03*
X451940Y383040I-1000J0D01*
G01*
D13*
X1807890Y1559040D02*
G03*
X1807890Y1559040I-17550J0D01*
G01*
Y1457440D02*
G03*
X1807890Y1457440I-17550J0D01*
G01*
Y1355840D02*
G03*
X1807890Y1355840I-17550J0D01*
G01*
Y1151370D02*
G03*
X1807890Y1151370I-17550J0D01*
G01*
Y1049770D02*
G03*
X1807890Y1049770I-17550J0D01*
G01*
Y1660640D02*
G03*
X1807890Y1660640I-17550J0D01*
G01*
Y1762240D02*
G03*
X1807890Y1762240I-17550J0D01*
G01*
Y1252970D02*
G03*
X1807890Y1252970I-17550J0D01*
G01*
X1132840Y1622700D02*
Y1704700D01*
Y1622700D02*
X1234440D01*
Y1704700D01*
X1132840D02*
X1234440D01*
X778510Y1621430D02*
Y1703430D01*
Y1621430D02*
X880110D01*
Y1703430D01*
X778510D02*
X880110D01*
X249350Y1297510D02*
Y1402510D01*
X144350Y1318510D02*
Y1381510D01*
Y1318510D02*
X165350Y1297510D01*
X144350Y1381510D02*
X165350Y1402510D01*
Y1297510D02*
X249350D01*
X165350Y1402510D02*
X249350D01*
X660520Y740560D02*
X675520D01*
X653520Y727560D02*
Y732560D01*
Y727560D02*
X665520D01*
X670520D02*
X682520D01*
Y732560D01*
X1264380Y1294280D02*
X1279380D01*
X1257380Y1281280D02*
Y1286280D01*
Y1281280D02*
X1269380D01*
X1274380D02*
X1286380D01*
Y1286280D01*
X1189230Y1252600D02*
X1221230D01*
X1189230Y1236600D02*
Y1252600D01*
Y1236600D02*
X1221230D01*
Y1252600D01*
X1189230Y1187070D02*
X1221230D01*
Y1203070D01*
X1189230D02*
X1221230D01*
X1189230Y1187070D02*
Y1203070D01*
X798070Y1192150D02*
X830070D01*
Y1208150D01*
X798070D02*
X830070D01*
X798070Y1192150D02*
Y1208150D01*
X796800Y1255140D02*
X828800D01*
X796800Y1239140D02*
Y1255140D01*
Y1239140D02*
X828800D01*
Y1255140D01*
X751810Y1551690D02*
X906810D01*
X751810Y1361690D02*
Y1551690D01*
Y1361690D02*
X906810D01*
Y1551690D01*
X1760390Y1588990D02*
X1820290D01*
Y1529090D02*
Y1588990D01*
X1760390Y1529090D02*
X1820290D01*
X1760390D02*
Y1588990D01*
Y1487390D02*
X1820290D01*
Y1427490D02*
Y1487390D01*
X1760390Y1427490D02*
X1820290D01*
X1760390D02*
Y1487390D01*
Y1385790D02*
X1820290D01*
Y1325890D02*
Y1385790D01*
X1760390Y1325890D02*
X1820290D01*
X1760390D02*
Y1385790D01*
Y1181320D02*
X1820290D01*
Y1121420D02*
Y1181320D01*
X1760390Y1121420D02*
X1820290D01*
X1760390D02*
Y1181320D01*
Y1079720D02*
X1820290D01*
Y1019820D02*
Y1079720D01*
X1760390Y1019820D02*
X1820290D01*
X1760390D02*
Y1079720D01*
X868190Y1296820D02*
X883190D01*
X861190Y1283820D02*
Y1288820D01*
Y1283820D02*
X873190D01*
X878190D02*
X890190D01*
Y1288820D01*
X1304870Y1439350D02*
Y1494350D01*
X1059870Y1439350D02*
X1304870D01*
X1059870D02*
Y1494350D01*
X1304870D01*
X1789430Y736640D02*
Y843240D01*
X1814830D01*
Y736640D02*
Y843240D01*
X1789430Y736640D02*
X1814830D01*
X457580Y1637680D02*
Y1669680D01*
X441580D02*
X457580D01*
X441580Y1637680D02*
Y1669680D01*
Y1637680D02*
X457580D01*
X190880D02*
Y1669680D01*
X174880D02*
X190880D01*
X174880Y1637680D02*
Y1669680D01*
Y1637680D02*
X190880D01*
X235330D02*
Y1669680D01*
X219330D02*
X235330D01*
X219330Y1637680D02*
Y1669680D01*
Y1637680D02*
X235330D01*
X279780D02*
Y1669680D01*
X263780D02*
X279780D01*
X263780Y1637680D02*
Y1669680D01*
Y1637680D02*
X279780D01*
X324230D02*
Y1669680D01*
X308230D02*
X324230D01*
X308230Y1637680D02*
Y1669680D01*
Y1637680D02*
X324230D01*
X368680D02*
Y1669680D01*
X352680D02*
X368680D01*
X352680Y1637680D02*
Y1669680D01*
Y1637680D02*
X368680D01*
X413130D02*
Y1669680D01*
X397130D02*
X413130D01*
X397130Y1637680D02*
Y1669680D01*
Y1637680D02*
X413130D01*
X502030D02*
Y1669680D01*
X486030D02*
X502030D01*
X486030Y1637680D02*
Y1669680D01*
Y1637680D02*
X502030D01*
X1760390Y1690590D02*
X1820290D01*
Y1630690D02*
Y1690590D01*
X1760390Y1630690D02*
X1820290D01*
X1760390D02*
Y1690590D01*
Y1792190D02*
X1820290D01*
Y1732290D02*
Y1792190D01*
X1760390Y1732290D02*
X1820290D01*
X1760390D02*
Y1792190D01*
Y1282920D02*
X1820290D01*
Y1223020D02*
Y1282920D01*
X1760390Y1223020D02*
X1820290D01*
X1760390D02*
Y1282920D01*
X457240Y396240D02*
X563840D01*
Y370840D02*
Y396240D01*
X457240Y370840D02*
X563840D01*
X457240D02*
Y396240D01*
M02*
