G04*
G04 #@! TF.GenerationSoftware,Altium Limited,Altium Designer,23.1.1 (15)*
G04*
G04 Layer_Physical_Order=1*
G04 Layer_Color=255*
%FSLAX44Y44*%
%MOMM*%
G71*
G04*
G04 #@! TF.SameCoordinates,AA1C95EE-6770-4743-BBAD-D3AA2F0EE2A5*
G04*
G04*
G04 #@! TF.FilePolarity,Positive*
G04*
G01*
G75*
%ADD11C,0.2540*%
G04:AMPARAMS|DCode=17|XSize=5.06mm|YSize=2.11mm|CornerRadius=0.2637mm|HoleSize=0mm|Usage=FLASHONLY|Rotation=0.000|XOffset=0mm|YOffset=0mm|HoleType=Round|Shape=RoundedRectangle|*
%AMROUNDEDRECTD17*
21,1,5.0600,1.5825,0,0,0.0*
21,1,4.5325,2.1100,0,0,0.0*
1,1,0.5275,2.2663,-0.7913*
1,1,0.5275,-2.2663,-0.7913*
1,1,0.5275,-2.2663,0.7913*
1,1,0.5275,2.2663,0.7913*
%
%ADD17ROUNDEDRECTD17*%
%ADD18R,1.5240X1.2700*%
%ADD19R,1.2700X1.5240*%
%ADD20R,1.0000X1.4000*%
%ADD21R,1.0100X1.7300*%
%ADD22R,3.5560X3.8100*%
%ADD23R,1.7300X1.0100*%
%ADD38C,1.7780*%
%ADD53C,0.7620*%
%ADD54C,1.6500*%
%ADD55R,1.6500X1.6500*%
%ADD56C,3.5000*%
%ADD57R,1.7780X1.7780*%
%ADD58C,1.9500*%
%ADD59C,1.6050*%
%ADD60C,1.5748*%
%ADD61C,2.5400*%
%ADD62C,1.4980*%
%ADD63R,1.4980X1.4980*%
%ADD64C,1.5300*%
%ADD65R,1.5080X1.5080*%
%ADD66C,1.5080*%
%ADD67R,1.6050X1.6050*%
%ADD68C,1.6510*%
%ADD69R,1.6510X1.6510*%
%ADD70C,2.0000*%
%ADD71C,1.6764*%
%ADD72R,1.6050X1.6050*%
%ADD73C,2.5000*%
%ADD74C,1.2700*%
D11*
X1207770Y1070610D02*
X1253490D01*
X1258570Y1075690D01*
Y1218946D01*
X1452880Y872490D02*
Y1267460D01*
X1443560Y1276780D02*
X1452880Y1267460D01*
X1281380Y1276780D02*
X1443560D01*
X1663700Y1557020D02*
Y1761490D01*
Y1455420D02*
Y1557020D01*
Y1046480D02*
Y1455420D01*
X1677670Y751840D02*
X1802130D01*
X1662430Y767080D02*
X1677670Y751840D01*
X1662430Y767080D02*
Y1045210D01*
X1663700Y1046480D01*
X443230Y527050D02*
X523240Y447040D01*
Y383540D02*
Y447040D01*
X1685290Y1045210D02*
X1730780D01*
X151130Y100330D02*
X264160D01*
X135890Y115570D02*
X151130Y100330D01*
X264160D02*
X271780Y107950D01*
X156210Y1449070D02*
Y1755140D01*
X160020Y1197610D02*
X280670D01*
X138430Y1176020D02*
X160020Y1197610D01*
X138430Y1087120D02*
Y1176020D01*
X280670Y1197610D02*
X298450Y1215390D01*
X668020Y745060D02*
Y778510D01*
X694690Y805180D01*
Y855980D01*
X920750Y890270D02*
Y1268730D01*
Y715010D02*
Y890270D01*
X768350D02*
X920750D01*
X744220Y866140D02*
X768350Y890270D01*
X744220Y737870D02*
Y866140D01*
X729410Y723060D02*
X744220Y737870D01*
X677520Y723060D02*
X729410D01*
X658520Y706730D02*
Y723060D01*
Y706730D02*
X680720Y684530D01*
Y668020D02*
Y684530D01*
X652780Y576580D02*
Y628650D01*
X657860Y633730D01*
Y668020D01*
X1281430Y1218946D02*
X1282700Y1220216D01*
Y1240790D01*
X1262380Y1261110D02*
X1282700Y1240790D01*
X1262380Y1261110D02*
Y1276780D01*
X375920Y798830D02*
X535940D01*
X548640Y786130D01*
Y383540D02*
Y786130D01*
X490220Y320040D02*
X773430D01*
X472440Y337820D02*
X490220Y320040D01*
X367030Y789940D02*
X375920Y798830D01*
X367030Y768350D02*
Y789940D01*
X1283970Y1403350D02*
Y1480850D01*
X1271880Y1298780D02*
Y1391260D01*
X1283970Y1403350D01*
X1193800Y1298780D02*
Y1347470D01*
X1258570Y1412240D01*
Y1480850D01*
X1220330Y1195070D02*
X1220330Y1195070D01*
Y1244600D01*
X1156970Y1195070D02*
X1190130D01*
X1150620Y1201420D02*
X1156970Y1195070D01*
X1216660Y1298780D02*
X1220330Y1295110D01*
Y1244600D02*
Y1295110D01*
X1190130Y1295110D02*
X1193800Y1298780D01*
X1190130Y1244600D02*
Y1295110D01*
X1150620Y1201420D02*
Y1275920D01*
Y1298780D02*
X1193800D01*
X1216660D02*
X1271880D01*
X885190Y1279320D02*
X910160D01*
X920750Y1268730D01*
X889310Y1314940D02*
Y1395690D01*
X887730Y1056640D02*
X889000Y1055370D01*
X887730Y1056640D02*
Y1221740D01*
X864870D02*
X866190Y1223060D01*
Y1279320D01*
X875690Y1301320D02*
X889310Y1314940D01*
X873990Y1303020D02*
X875690Y1301320D01*
X822960Y1303020D02*
X873990D01*
X822960Y1283970D02*
Y1303020D01*
Y1283970D02*
X827900Y1279030D01*
Y1247140D02*
Y1279030D01*
Y1247140D02*
X829170Y1245870D01*
Y1200150D02*
Y1245870D01*
X797700Y1247140D02*
X800100Y1249540D01*
Y1303020D01*
X768350Y1200150D02*
X798970D01*
X758190Y1210310D02*
X768350Y1200150D01*
X758190Y1210310D02*
Y1278890D01*
X798830Y1301750D02*
X800100Y1303020D01*
X758190Y1301750D02*
X798830D01*
X758190D02*
Y1336040D01*
X769310Y1347160D01*
Y1395690D01*
X1841500Y1071880D02*
Y1173480D01*
Y786130D02*
Y1071880D01*
X1841110Y1072270D02*
X1841500Y1071880D01*
X1822840Y1072270D02*
X1841110D01*
X1841500Y1173480D02*
Y1276350D01*
X1841110Y1173870D02*
X1841500Y1173480D01*
X1822840Y1173870D02*
X1841110D01*
X1841500Y1276350D02*
Y1379220D01*
X1840620Y1275470D02*
X1841500Y1276350D01*
X1822840Y1275470D02*
X1840620D01*
X1841500Y1379220D02*
Y1479550D01*
X1840620Y1378340D02*
X1841500Y1379220D01*
X1822840Y1378340D02*
X1840620D01*
X1841500Y1479550D02*
Y1581150D01*
X1841110Y1479940D02*
X1841500Y1479550D01*
X1822840Y1479940D02*
X1841110D01*
X1841500Y1581150D02*
Y1682750D01*
X1841110Y1581540D02*
X1841500Y1581150D01*
X1822840Y1581540D02*
X1841110D01*
X1841500Y1682750D02*
Y1778000D01*
X1841110Y1683140D02*
X1841500Y1682750D01*
X1822840Y1683140D02*
X1841110D01*
X1802130Y777240D02*
X1832610D01*
X1841500Y786130D01*
X1834760Y1784740D02*
X1841500Y1778000D01*
X1822840Y1784740D02*
X1834760D01*
X443230Y527050D02*
Y699770D01*
X472440Y337820D02*
Y383540D01*
X443230Y699770D02*
Y768350D01*
X804860Y401320D02*
Y682940D01*
X836930Y715010D01*
X869950D01*
X163830Y699770D02*
Y768350D01*
X794385Y318135D02*
X796290Y316230D01*
Y320040D02*
Y369890D01*
X764860Y401320D02*
X796290Y369890D01*
Y175260D02*
Y316230D01*
X367030Y699770D02*
Y768350D01*
X135890Y115570D02*
Y143510D01*
X271780Y107950D02*
Y122530D01*
X168910Y131420D02*
X177800Y122530D01*
X135890Y217170D02*
X207010D01*
X220980Y122530D02*
Y153670D01*
X207010Y217170D02*
Y405130D01*
Y167640D02*
Y217170D01*
Y167640D02*
X220980Y153670D01*
X248920Y1520190D02*
Y1562100D01*
X182880Y1628140D02*
X248920Y1562100D01*
X182880Y1628140D02*
Y1638580D01*
X274320Y1520190D02*
Y1577340D01*
X227330Y1624330D02*
X274320Y1577340D01*
X227330Y1624330D02*
Y1638580D01*
X299720Y1520190D02*
Y1598930D01*
X271780Y1626870D02*
X299720Y1598930D01*
X271780Y1626870D02*
Y1638580D01*
X405130Y1626375D02*
Y1638580D01*
X375920Y1520190D02*
Y1597165D01*
X405130Y1626375D01*
X401320Y1520190D02*
Y1574800D01*
X449580Y1623060D01*
X494030D02*
Y1638580D01*
X426720Y1555750D02*
X494030Y1623060D01*
X426720Y1520190D02*
Y1555750D01*
X449580Y1623060D02*
Y1638580D01*
X360680Y1610360D02*
Y1638580D01*
X350520Y1600200D02*
X360680Y1610360D01*
X350520Y1520190D02*
Y1600200D01*
X316230Y1609090D02*
Y1638580D01*
Y1609090D02*
X325120Y1600200D01*
Y1520190D02*
Y1600200D01*
X239600Y1350010D02*
X298450D01*
X217170Y1256030D02*
X298450D01*
Y1350010D02*
Y1404620D01*
Y1256030D02*
Y1350010D01*
Y1215390D02*
Y1256030D01*
X275590Y1427480D02*
X298450Y1404620D01*
X177800Y1427480D02*
X275590D01*
X156210Y1449070D02*
X177800Y1427480D01*
X156210Y1755140D02*
X168910Y1767840D01*
X182880D01*
X468630Y1018540D02*
Y1087120D01*
X443230Y1018540D02*
Y1087120D01*
X417830Y1018540D02*
Y1087120D01*
X392430Y1018540D02*
Y1087120D01*
X367030Y1018540D02*
Y1087120D01*
X341630Y1018540D02*
Y1087120D01*
X316230Y1018540D02*
Y1087120D01*
X290830Y1018540D02*
Y1087120D01*
X265430Y1018540D02*
Y1087120D01*
X240030Y1018540D02*
Y1087120D01*
X214630Y1018540D02*
Y1087120D01*
X189230Y1018540D02*
Y1087120D01*
X163830Y1018540D02*
Y1087120D01*
X468630Y699770D02*
Y768350D01*
X417830Y699770D02*
Y768350D01*
X392430Y699770D02*
Y768350D01*
X341630Y699770D02*
Y768350D01*
X316230Y699770D02*
Y768350D01*
X290830Y699770D02*
Y768350D01*
X265430Y699770D02*
Y768350D01*
X240030Y699770D02*
Y768350D01*
X214630Y699770D02*
Y768350D01*
X189230Y699770D02*
Y768350D01*
X494030Y1668780D02*
Y1744980D01*
X449580Y1668780D02*
Y1744980D01*
X405130Y1668780D02*
Y1744980D01*
X360680Y1668780D02*
Y1744980D01*
X271780Y1668780D02*
Y1744980D01*
X227330Y1668780D02*
Y1744980D01*
X182880Y1668780D02*
Y1744980D01*
Y1767840D02*
X227330D01*
X271780D01*
X316230D02*
X360680D01*
X271780D02*
X316230D01*
X360680D02*
X405130D01*
X449580D01*
X494030D01*
X313922Y1668780D02*
X316230D01*
X313922Y1693881D02*
X316230Y1696189D01*
Y1744980D01*
X1734590Y1355090D02*
X1757840Y1378340D01*
X1685290Y1355090D02*
X1734590D01*
Y1761490D02*
X1757840Y1784740D01*
X1686560Y1761490D02*
X1734590D01*
X1733320Y1250950D02*
X1757840Y1275470D01*
X1685290Y1250950D02*
X1733320D01*
Y1455420D02*
X1757840Y1479940D01*
X1685290Y1455420D02*
X1733320D01*
Y1557020D02*
X1757840Y1581540D01*
X1685290Y1557020D02*
X1733320D01*
Y1658620D02*
X1757840Y1683140D01*
X1685290Y1658620D02*
X1733320D01*
X1732050Y1148080D02*
X1757840Y1173870D01*
X1685290Y1148080D02*
X1732050D01*
X1730780Y1045210D02*
X1757840Y1072270D01*
X895350Y616490D02*
X914670Y597170D01*
X895350Y616490D02*
Y816610D01*
X313922Y1668780D02*
Y1693881D01*
D17*
X239600Y1350010D02*
D03*
X154100D02*
D03*
D18*
X217170Y1256030D02*
D03*
X194310D02*
D03*
X113030Y217170D02*
D03*
X135890D02*
D03*
X680720Y668020D02*
D03*
X657860D02*
D03*
X1258570Y1218946D02*
D03*
X1281430D02*
D03*
X1216660Y1298780D02*
D03*
X1193800D02*
D03*
X822960Y1303020D02*
D03*
X800100D02*
D03*
X113030Y143510D02*
D03*
X135890D02*
D03*
X887730Y1221740D02*
D03*
X864870D02*
D03*
X1685290Y1658620D02*
D03*
X1662430D02*
D03*
X1685290Y1557020D02*
D03*
X1662430D02*
D03*
X1685290Y1455420D02*
D03*
X1662430D02*
D03*
X1685290Y1045210D02*
D03*
X1662430D02*
D03*
X1685290Y1148080D02*
D03*
X1662430D02*
D03*
X1685290Y1250950D02*
D03*
X1662430D02*
D03*
X1685290Y1355090D02*
D03*
X1662430D02*
D03*
X796290Y320040D02*
D03*
X773430D02*
D03*
X1686560Y1761490D02*
D03*
X1663700D02*
D03*
D19*
X494030Y1744980D02*
D03*
Y1767840D02*
D03*
X405130Y1744980D02*
D03*
Y1767840D02*
D03*
X449580Y1744980D02*
D03*
Y1767840D02*
D03*
X1150620Y1298780D02*
D03*
Y1275920D02*
D03*
X758190Y1301750D02*
D03*
Y1278890D02*
D03*
X271780Y1744980D02*
D03*
Y1767840D02*
D03*
X316230Y1744980D02*
D03*
Y1767840D02*
D03*
X360680Y1744980D02*
D03*
Y1767840D02*
D03*
X227330Y1744980D02*
D03*
Y1767840D02*
D03*
X182880Y1744980D02*
D03*
Y1767840D02*
D03*
D20*
X668020Y745060D02*
D03*
X677520Y723060D02*
D03*
X658520D02*
D03*
X1271880Y1298780D02*
D03*
X1281380Y1276780D02*
D03*
X1262380D02*
D03*
X875690Y1301320D02*
D03*
X885190Y1279320D02*
D03*
X866190D02*
D03*
D21*
X1190130Y1244600D02*
D03*
X1220330D02*
D03*
X1220330Y1195070D02*
D03*
X1190130D02*
D03*
X829170Y1200150D02*
D03*
X798970D02*
D03*
X797700Y1247140D02*
D03*
X827900D02*
D03*
D22*
X661670Y1412240D02*
D03*
Y1478240D02*
D03*
D23*
X449580Y1668780D02*
D03*
Y1638580D02*
D03*
X182880Y1668780D02*
D03*
Y1638580D02*
D03*
X227330Y1668780D02*
D03*
Y1638580D02*
D03*
X271780Y1668780D02*
D03*
Y1638580D02*
D03*
X316230Y1668780D02*
D03*
Y1638580D02*
D03*
X360680Y1668780D02*
D03*
Y1638580D02*
D03*
X405130Y1668780D02*
D03*
Y1638580D02*
D03*
X494030Y1668780D02*
D03*
Y1638580D02*
D03*
D38*
X694690Y855980D02*
D03*
D53*
X113030Y1256030D02*
X194310D01*
X113030D02*
Y1342390D01*
Y1087120D02*
Y1256030D01*
Y1342390D02*
X120650Y1350010D01*
X154100D01*
X173380Y122530D02*
X177800D01*
X168910Y127000D02*
Y131420D01*
X113030Y143510D02*
Y166370D01*
Y217170D01*
Y166370D02*
X154940D01*
X168910Y127000D02*
X173380Y122530D01*
X113030Y217170D02*
Y699770D01*
X661670Y1478240D02*
Y1576070D01*
X660400Y1577340D02*
X661670Y1576070D01*
X829310Y1375690D02*
Y1418590D01*
X814070Y1433830D02*
X829310Y1418590D01*
X721360Y1433830D02*
X814070D01*
X699770Y1412240D02*
X721360Y1433830D01*
X661670Y1412240D02*
X699770D01*
X331470Y383540D02*
X472440D01*
X331470D02*
Y488950D01*
Y128270D02*
Y383540D01*
X271780Y122530D02*
X325730D01*
X331470Y128270D01*
X317500Y502920D02*
X331470Y488950D01*
X148590Y502920D02*
X317500D01*
X138430Y513080D02*
X148590Y502920D01*
X138430Y513080D02*
Y699770D01*
Y1018540D02*
Y1087120D01*
Y768350D02*
Y1018540D01*
Y699770D02*
Y768350D01*
X177800Y122530D02*
X195580D01*
X168910Y131420D02*
Y152400D01*
X154940Y166370D02*
X168910Y152400D01*
X113030Y1018540D02*
Y1087120D01*
Y699770D02*
Y768350D01*
D54*
X1209040Y1663700D02*
D03*
X854710Y1662430D02*
D03*
D55*
X1158240Y1663700D02*
D03*
X803910Y1662430D02*
D03*
D56*
X53340Y53340D02*
D03*
X1951990Y60960D02*
D03*
X1954530Y1870710D02*
D03*
X59690D02*
D03*
D57*
X628650Y855980D02*
D03*
D58*
X889310Y1517690D02*
D03*
X769310D02*
D03*
Y1395690D02*
D03*
X889310D02*
D03*
X829310Y1375690D02*
D03*
D59*
X207010Y405130D02*
D03*
X232410D02*
D03*
X652780Y576580D02*
D03*
X678180D02*
D03*
X770890Y175260D02*
D03*
X796290D02*
D03*
X951230Y1028700D02*
D03*
X976630D02*
D03*
X914670Y597170D02*
D03*
X889270D02*
D03*
X1644920Y806180D02*
D03*
Y780780D02*
D03*
X1802130Y828040D02*
D03*
Y802640D02*
D03*
Y777240D02*
D03*
X548640Y383540D02*
D03*
X523240D02*
D03*
X497840D02*
D03*
D60*
X1300480Y695960D02*
D03*
Y772160D02*
D03*
Y797560D02*
D03*
Y822960D02*
D03*
Y848360D02*
D03*
Y873760D02*
D03*
Y746760D02*
D03*
Y721360D02*
D03*
X1141730Y695960D02*
D03*
Y772160D02*
D03*
Y797560D02*
D03*
Y822960D02*
D03*
Y848360D02*
D03*
Y873760D02*
D03*
Y746760D02*
D03*
Y721360D02*
D03*
X1452880Y694690D02*
D03*
Y770890D02*
D03*
Y796290D02*
D03*
Y821690D02*
D03*
Y847090D02*
D03*
Y872490D02*
D03*
Y745490D02*
D03*
Y720090D02*
D03*
X426720Y1520190D02*
D03*
X350520D02*
D03*
X325120D02*
D03*
X299720D02*
D03*
X274320D02*
D03*
X248920D02*
D03*
X375920D02*
D03*
X401320D02*
D03*
X1512570Y1311910D02*
D03*
Y1388110D02*
D03*
Y1413510D02*
D03*
Y1438910D02*
D03*
Y1464310D02*
D03*
Y1489710D02*
D03*
Y1362710D02*
D03*
Y1337310D02*
D03*
D61*
X895350Y816610D02*
D03*
X869950Y715010D02*
D03*
X920750D02*
D03*
D62*
X1822840Y1581540D02*
D03*
Y1536540D02*
D03*
X1757840D02*
D03*
X1822840Y1479940D02*
D03*
Y1434940D02*
D03*
X1757840D02*
D03*
X1822840Y1378340D02*
D03*
Y1333340D02*
D03*
X1757840D02*
D03*
X1822840Y1173870D02*
D03*
Y1128870D02*
D03*
X1757840D02*
D03*
X1822840Y1072270D02*
D03*
Y1027270D02*
D03*
X1757840D02*
D03*
X1822840Y1683140D02*
D03*
Y1638140D02*
D03*
X1757840D02*
D03*
X1822840Y1784740D02*
D03*
Y1739740D02*
D03*
X1757840D02*
D03*
X1822840Y1275470D02*
D03*
Y1230470D02*
D03*
X1757840D02*
D03*
D63*
Y1581540D02*
D03*
Y1479940D02*
D03*
Y1378340D02*
D03*
Y1173870D02*
D03*
Y1072270D02*
D03*
Y1683140D02*
D03*
Y1784740D02*
D03*
Y1275470D02*
D03*
D64*
X468630Y699770D02*
D03*
X443230D02*
D03*
X417830D02*
D03*
X392430D02*
D03*
X367030D02*
D03*
X341630D02*
D03*
X316230D02*
D03*
X290830D02*
D03*
X265430D02*
D03*
X240030D02*
D03*
X214630D02*
D03*
X189230D02*
D03*
X163830D02*
D03*
X138430D02*
D03*
X113030D02*
D03*
Y768350D02*
D03*
X138430D02*
D03*
X163830D02*
D03*
X189230D02*
D03*
X214630D02*
D03*
X240030D02*
D03*
X265430D02*
D03*
X290830D02*
D03*
X316230D02*
D03*
X341630D02*
D03*
X367030D02*
D03*
X392430D02*
D03*
X417830D02*
D03*
X443230D02*
D03*
X468630D02*
D03*
Y1018540D02*
D03*
X443230D02*
D03*
X417830D02*
D03*
X392430D02*
D03*
X367030D02*
D03*
X341630D02*
D03*
X316230D02*
D03*
X290830D02*
D03*
X265430D02*
D03*
X240030D02*
D03*
X214630D02*
D03*
X189230D02*
D03*
X163830D02*
D03*
X138430D02*
D03*
X113030D02*
D03*
Y1087120D02*
D03*
X138430D02*
D03*
X163830D02*
D03*
X189230D02*
D03*
X214630D02*
D03*
X240030D02*
D03*
X265430D02*
D03*
X290830D02*
D03*
X316230D02*
D03*
X341630D02*
D03*
X367030D02*
D03*
X392430D02*
D03*
X417830D02*
D03*
X443230D02*
D03*
X468630D02*
D03*
D65*
X1080770Y1480850D02*
D03*
D66*
X1156970D02*
D03*
X1258570D02*
D03*
X1283970D02*
D03*
D67*
X1802130Y751840D02*
D03*
D68*
X271780Y122530D02*
D03*
X246380D02*
D03*
X220980D02*
D03*
D69*
X195580D02*
D03*
D70*
X660400Y1577340D02*
D03*
Y1724660D02*
D03*
D71*
X764860Y401320D02*
D03*
X804860D02*
D03*
D72*
X472440Y383540D02*
D03*
D73*
X53340Y53340D02*
D03*
X1951990Y60960D02*
D03*
X1954530Y1870710D02*
D03*
X59690D02*
D03*
D74*
X889000Y1055370D02*
D03*
X1207770Y1070610D02*
D03*
M02*
