G04*
G04 #@! TF.GenerationSoftware,Altium Limited,Altium Designer,23.1.1 (15)*
G04*
G04 Layer_Color=32768*
%FSLAX44Y44*%
%MOMM*%
G71*
G04*
G04 #@! TF.SameCoordinates,AA1C95EE-6770-4743-BBAD-D3AA2F0EE2A5*
G04*
G04*
G04 #@! TF.FilePolarity,Positive*
G04*
G01*
G75*
%ADD75C,0.0500*%
%ADD76C,0.0508*%
G36*
X293370Y317500D02*
Y162560D01*
X173990D01*
Y317500D01*
X293370D01*
D02*
G37*
D75*
X1130340Y1620200D02*
Y1707200D01*
Y1620200D02*
X1236940D01*
Y1707200D01*
X1130340D02*
X1236940D01*
X776010Y1618930D02*
Y1705930D01*
Y1618930D02*
X882610D01*
Y1705930D01*
X776010D02*
X882610D01*
X139350Y1292510D02*
Y1334410D01*
X123750D02*
X139350D01*
X123750D02*
Y1365610D01*
X139350D01*
Y1407510D01*
X254350D01*
Y1365610D02*
Y1407510D01*
Y1365610D02*
X269950D01*
Y1334410D02*
Y1365610D01*
X254350Y1334410D02*
X269950D01*
X254350Y1292510D02*
Y1334410D01*
X139350Y1292510D02*
X254350D01*
X1182580Y1233450D02*
X1227880D01*
X1182580D02*
Y1255750D01*
X1227880D01*
Y1233450D02*
Y1255750D01*
X1182580Y1206220D02*
X1227880D01*
Y1183920D02*
Y1206220D01*
X1182580Y1183920D02*
X1227880D01*
X1182580D02*
Y1206220D01*
X791420Y1211300D02*
X836720D01*
Y1189000D02*
Y1211300D01*
X791420Y1189000D02*
X836720D01*
X791420D02*
Y1211300D01*
X790150Y1235990D02*
X835450D01*
X790150D02*
Y1258290D01*
X835450D01*
Y1235990D02*
Y1258290D01*
X749310Y1554190D02*
X909310D01*
X749310Y1359190D02*
Y1554190D01*
Y1359190D02*
X909310D01*
Y1554190D01*
X1747840Y1591540D02*
X1832840D01*
Y1526540D02*
Y1591540D01*
X1747840Y1526540D02*
X1832840D01*
X1747840D02*
Y1591540D01*
Y1489940D02*
X1832840D01*
Y1424940D02*
Y1489940D01*
X1747840Y1424940D02*
X1832840D01*
X1747840D02*
Y1489940D01*
Y1388340D02*
X1832840D01*
Y1323340D02*
Y1388340D01*
X1747840Y1323340D02*
X1832840D01*
X1747840D02*
Y1388340D01*
Y1183870D02*
X1832840D01*
Y1118870D02*
Y1183870D01*
X1747840Y1118870D02*
X1832840D01*
X1747840D02*
Y1183870D01*
Y1082270D02*
X1832840D01*
Y1017270D02*
Y1082270D01*
X1747840Y1017270D02*
X1832840D01*
X1747840D02*
Y1082270D01*
X1307370Y1436850D02*
Y1496850D01*
X1057370D02*
X1307370D01*
X1057370Y1436850D02*
Y1496850D01*
Y1436850D02*
X1307370D01*
X1786930Y734140D02*
Y845740D01*
X1817330D01*
Y734140D02*
Y845740D01*
X1786930Y734140D02*
X1817330D01*
X438430Y1631030D02*
Y1676330D01*
X460730D01*
Y1631030D02*
Y1676330D01*
X438430Y1631030D02*
X460730D01*
X171730D02*
Y1676330D01*
X194030D01*
Y1631030D02*
Y1676330D01*
X171730Y1631030D02*
X194030D01*
X216180D02*
Y1676330D01*
X238480D01*
Y1631030D02*
Y1676330D01*
X216180Y1631030D02*
X238480D01*
X260630D02*
Y1676330D01*
X282930D01*
Y1631030D02*
Y1676330D01*
X260630Y1631030D02*
X282930D01*
X305080D02*
Y1676330D01*
X327380D01*
Y1631030D02*
Y1676330D01*
X305080Y1631030D02*
X327380D01*
X349530D02*
Y1676330D01*
X371830D01*
Y1631030D02*
Y1676330D01*
X349530Y1631030D02*
X371830D01*
X393980D02*
Y1676330D01*
X416280D01*
Y1631030D02*
Y1676330D01*
X393980Y1631030D02*
X416280D01*
X482880D02*
Y1676330D01*
X505180D01*
Y1631030D02*
Y1676330D01*
X482880Y1631030D02*
X505180D01*
X1747840Y1693140D02*
X1832840D01*
Y1628140D02*
Y1693140D01*
X1747840Y1628140D02*
X1832840D01*
X1747840D02*
Y1693140D01*
Y1794740D02*
X1832840D01*
Y1729740D02*
Y1794740D01*
X1747840Y1729740D02*
X1832840D01*
X1747840D02*
Y1794740D01*
Y1285470D02*
X1832840D01*
Y1220470D02*
Y1285470D01*
X1747840Y1220470D02*
X1832840D01*
X1747840D02*
Y1285470D01*
X454740Y398740D02*
X566340D01*
Y368340D02*
Y398740D01*
X454740Y368340D02*
X566340D01*
X454740D02*
Y398740D01*
D76*
X647790Y755890D02*
X688250D01*
X647790Y712230D02*
X688250D01*
X647790D02*
Y755890D01*
X688250Y712230D02*
Y755890D01*
X1251650Y1309610D02*
X1292110D01*
X1251650Y1265950D02*
X1292110D01*
X1251650D02*
Y1309610D01*
X1292110Y1265950D02*
Y1309610D01*
X855460Y1312150D02*
X895920D01*
X855460Y1268490D02*
X895920D01*
X855460D02*
Y1312150D01*
X895920Y1268490D02*
Y1312150D01*
M02*
