G04*
G04 #@! TF.GenerationSoftware,Altium Limited,Altium Designer,23.1.1 (15)*
G04*
G04 Layer_Color=255*
%FSLAX44Y44*%
%MOMM*%
G71*
G04*
G04 #@! TF.SameCoordinates,AA1C95EE-6770-4743-BBAD-D3AA2F0EE2A5*
G04*
G04*
G04 #@! TF.FilePolarity,Positive*
G04*
G01*
G75*
%ADD38C,1.7780*%
%ADD54C,1.6500*%
%ADD55R,1.6500X1.6500*%
%ADD56C,3.5000*%
%ADD57R,1.7780X1.7780*%
%ADD58C,1.9500*%
%ADD59C,1.6050*%
%ADD60C,1.5748*%
%ADD61C,2.5400*%
%ADD62C,1.4980*%
%ADD63R,1.4980X1.4980*%
%ADD64C,1.5300*%
%ADD65R,1.5080X1.5080*%
%ADD66C,1.5080*%
%ADD67R,1.6050X1.6050*%
%ADD68C,1.6510*%
%ADD69R,1.6510X1.6510*%
%ADD70C,2.0000*%
%ADD71C,1.6764*%
%ADD72R,1.6050X1.6050*%
%ADD73C,2.5000*%
D38*
X694690Y855980D02*
D03*
D54*
X1209040Y1663700D02*
D03*
X854710Y1662430D02*
D03*
D55*
X1158240Y1663700D02*
D03*
X803910Y1662430D02*
D03*
D56*
X53340Y53340D02*
D03*
X1951990Y60960D02*
D03*
X1954530Y1870710D02*
D03*
X59690D02*
D03*
D57*
X628650Y855980D02*
D03*
D58*
X889310Y1517690D02*
D03*
X769310D02*
D03*
Y1395690D02*
D03*
X889310D02*
D03*
X829310Y1375690D02*
D03*
D59*
X207010Y405130D02*
D03*
X232410D02*
D03*
X652780Y576580D02*
D03*
X678180D02*
D03*
X770890Y175260D02*
D03*
X796290D02*
D03*
X951230Y1028700D02*
D03*
X976630D02*
D03*
X914670Y597170D02*
D03*
X889270D02*
D03*
X1644920Y806180D02*
D03*
Y780780D02*
D03*
X1802130Y828040D02*
D03*
Y802640D02*
D03*
Y777240D02*
D03*
X548640Y383540D02*
D03*
X523240D02*
D03*
X497840D02*
D03*
D60*
X1300480Y695960D02*
D03*
Y772160D02*
D03*
Y797560D02*
D03*
Y822960D02*
D03*
Y848360D02*
D03*
Y873760D02*
D03*
Y746760D02*
D03*
Y721360D02*
D03*
X1141730Y695960D02*
D03*
Y772160D02*
D03*
Y797560D02*
D03*
Y822960D02*
D03*
Y848360D02*
D03*
Y873760D02*
D03*
Y746760D02*
D03*
Y721360D02*
D03*
X1452880Y694690D02*
D03*
Y770890D02*
D03*
Y796290D02*
D03*
Y821690D02*
D03*
Y847090D02*
D03*
Y872490D02*
D03*
Y745490D02*
D03*
Y720090D02*
D03*
X426720Y1520190D02*
D03*
X350520D02*
D03*
X325120D02*
D03*
X299720D02*
D03*
X274320D02*
D03*
X248920D02*
D03*
X375920D02*
D03*
X401320D02*
D03*
X1512570Y1311910D02*
D03*
Y1388110D02*
D03*
Y1413510D02*
D03*
Y1438910D02*
D03*
Y1464310D02*
D03*
Y1489710D02*
D03*
Y1362710D02*
D03*
Y1337310D02*
D03*
D61*
X895350Y816610D02*
D03*
X869950Y715010D02*
D03*
X920750D02*
D03*
D62*
X1822840Y1581540D02*
D03*
Y1536540D02*
D03*
X1757840D02*
D03*
X1822840Y1479940D02*
D03*
Y1434940D02*
D03*
X1757840D02*
D03*
X1822840Y1378340D02*
D03*
Y1333340D02*
D03*
X1757840D02*
D03*
X1822840Y1173870D02*
D03*
Y1128870D02*
D03*
X1757840D02*
D03*
X1822840Y1072270D02*
D03*
Y1027270D02*
D03*
X1757840D02*
D03*
X1822840Y1683140D02*
D03*
Y1638140D02*
D03*
X1757840D02*
D03*
X1822840Y1784740D02*
D03*
Y1739740D02*
D03*
X1757840D02*
D03*
X1822840Y1275470D02*
D03*
Y1230470D02*
D03*
X1757840D02*
D03*
D63*
Y1581540D02*
D03*
Y1479940D02*
D03*
Y1378340D02*
D03*
Y1173870D02*
D03*
Y1072270D02*
D03*
Y1683140D02*
D03*
Y1784740D02*
D03*
Y1275470D02*
D03*
D64*
X468630Y699770D02*
D03*
X443230D02*
D03*
X417830D02*
D03*
X392430D02*
D03*
X367030D02*
D03*
X341630D02*
D03*
X316230D02*
D03*
X290830D02*
D03*
X265430D02*
D03*
X240030D02*
D03*
X214630D02*
D03*
X189230D02*
D03*
X163830D02*
D03*
X138430D02*
D03*
X113030D02*
D03*
Y768350D02*
D03*
X138430D02*
D03*
X163830D02*
D03*
X189230D02*
D03*
X214630D02*
D03*
X240030D02*
D03*
X265430D02*
D03*
X290830D02*
D03*
X316230D02*
D03*
X341630D02*
D03*
X367030D02*
D03*
X392430D02*
D03*
X417830D02*
D03*
X443230D02*
D03*
X468630D02*
D03*
Y1018540D02*
D03*
X443230D02*
D03*
X417830D02*
D03*
X392430D02*
D03*
X367030D02*
D03*
X341630D02*
D03*
X316230D02*
D03*
X290830D02*
D03*
X265430D02*
D03*
X240030D02*
D03*
X214630D02*
D03*
X189230D02*
D03*
X163830D02*
D03*
X138430D02*
D03*
X113030D02*
D03*
Y1087120D02*
D03*
X138430D02*
D03*
X163830D02*
D03*
X189230D02*
D03*
X214630D02*
D03*
X240030D02*
D03*
X265430D02*
D03*
X290830D02*
D03*
X316230D02*
D03*
X341630D02*
D03*
X367030D02*
D03*
X392430D02*
D03*
X417830D02*
D03*
X443230D02*
D03*
X468630D02*
D03*
D65*
X1080770Y1480850D02*
D03*
D66*
X1156970D02*
D03*
X1258570D02*
D03*
X1283970D02*
D03*
D67*
X1802130Y751840D02*
D03*
D68*
X271780Y122530D02*
D03*
X246380D02*
D03*
X220980D02*
D03*
D69*
X195580D02*
D03*
D70*
X660400Y1577340D02*
D03*
Y1724660D02*
D03*
D71*
X764860Y401320D02*
D03*
X804860D02*
D03*
D72*
X472440Y383540D02*
D03*
D73*
X53340Y53340D02*
D03*
X1951990Y60960D02*
D03*
X1954530Y1870710D02*
D03*
X59690D02*
D03*
M02*
